<?xml version="1.0" encoding="UTF-8" standalone="no"?>
<svg
   xmlns:dc="http://purl.org/dc/elements/1.1/"
   xmlns:cc="http://creativecommons.org/ns#"
   xmlns:rdf="http://www.w3.org/1999/02/22-rdf-syntax-ns#"
   xmlns:svg="http://www.w3.org/2000/svg"
   xmlns="http://www.w3.org/2000/svg"
   version="1.1"
   id="svg2"
   viewBox="0 0 596.50001 173.4458"
   height="173.4458"
   width="596.5">
  <defs
     id="defs4" />
  <metadata
     id="metadata7">
    <rdf:RDF>
      <cc:Work
         rdf:about="">
        <dc:format>image/svg+xml</dc:format>
        <dc:type
           rdf:resource="http://purl.org/dc/dcmitype/StillImage" />
        <dc:title></dc:title>
      </cc:Work>
    </rdf:RDF>
  </metadata>
  <g
     transform="translate(450.39286,-445.6393)"
     id="layer1">
    <g
       transform="translate(-513.33268,300.25931)"
       id="layer1-7">
      <path
         id="path4233"
         d="m 587.14446,318.02762 c -1.02171,-0.64814 -1.23297,-6.71852 -1,-28.73468 0.3325,-31.42269 0.21361,-30.91253 8.29536,-35.59527 3.87989,-2.24808 4.72069,-2.31768 28,-2.31768 26.96967,0 29.07015,0.44775 34.30645,7.31288 2.62083,3.4361 2.69355,3.9001 2.69355,17.18712 0,13.28702 -0.0727,13.75102 -2.69355,17.18712 -5.24703,6.8792 -7.14743,7.27551 -36.55645,7.62342 l -26.25,0.31054 0,7.73946 c 0,4.68625 -0.4734,8.21286 -1.2,8.93946 -1.38512,1.38512 -3.73023,1.53082 -5.59536,0.34763 z m 59.81538,-26.65798 c 4.30967,-2.22862 4.97998,-4.31354 4.97998,-15.48965 0,-16.93883 -0.10749,-17 -29.87361,-17 -21.97294,0 -21.97294,0 -25.04966,2.58889 -3.07673,2.5889 -3.07673,2.5889 -3.07673,17 l 0,14.41111 25.04966,0 c 20.3868,0 25.59333,-0.28114 27.97036,-1.51035 z m -492.52002,15.5145 c -22.08029,-2.65359 -40.49524,-15.66251 -50.77453,-35.86876 -3.11574,-6.12467 -3.45388,-6.43147 -8.969688,-8.13809 -17.957105,-5.55602 -31.755785,-24.10433 -31.755785,-42.6864 0,-13.85825 15.22891,-38.22799 38.001383,-60.8109 l 8.06715,-8 7.75114,8 c 4.26312,4.4 9.57973,10.12364 11.81469,12.7192 4.06356,4.71921 4.06356,4.71921 11.15181,-3.5 3.89854,-4.52056 10.51585,-11.5942 14.70513,-15.7192 l 7.61688,-7.5 8.20661,8.5 c 4.51363,4.675 11.41825,12.16311 15.3436,16.64025 l 7.137,8.14024 7.54445,-8.64024 c 4.14945,-4.75214 9.8237,-10.8765 12.60944,-13.60969 5.065,-4.96944 5.065,-4.96944 13.14022,3 22.25707,21.96551 37.82585,46.82883 37.88941,60.50934 0.0935,20.11901 -15.93541,39.75496 -35.95723,44.04887 -4.97037,1.06596 -5.03379,1.12911 -9.22801,9.19094 -11.92341,22.9183 -38.44662,36.83072 -64.29367,33.72444 z m 82.89027,-55.9486 c 5.3641,-3.33636 11.39998,-10.3231 14.30242,-16.55555 2.27391,-4.88279 2.79541,-7.39652 2.80075,-13.5 0.006,-6.69044 -0.4008,-8.30956 -3.76731,-15 -4.43942,-8.8227 -11.97336,-19.12722 -23.69114,-32.4035 -8.46501,-9.59088 -8.46501,-9.59088 -12.81924,-5.34369 -2.39483,2.33596 -6.86026,7.2983 -9.92319,11.02743 -5.56895,6.78024 -5.56895,6.78024 -2.83098,10.5 19.04021,25.86765 26.44816,43.33245 24.98827,58.9117 -0.68426,7.30205 -0.68426,7.30205 3.57321,5.79992 2.34161,-0.82616 5.65685,-2.37251 7.36721,-3.43631 z M 97.297422,247.12999 c -0.42056,-5.62164 -0.11856,-9.50986 1.09967,-14.15816 2.889428,-11.02496 12.741488,-28.86197 23.613638,-42.75211 4.8218,-6.16027 4.8218,-6.16027 -1.49426,-13.5 -3.47383,-4.03685 -7.61284,-8.55426 -9.1978,-10.03869 -2.88174,-2.69896 -2.88174,-2.69896 -11.28136,6.70755 -11.477771,12.85366 -19.332861,23.56669 -23.823627,32.49141 -3.365835,6.6891 -3.773866,8.31317 -3.773866,15.02103 0,6.44136 0.458843,8.4511 3.19634,14 3.727776,7.55619 9.761072,13.79724 16.803665,17.38227 2.75,1.39989 5.09841,2.55683 5.2187,2.57098 0.12028,0.0141 -0.0422,-3.46178 -0.3611,-7.72428 z m 175.216398,52.29789 c -2.1593,-0.78828 -5.5343,-3.04153 -7.5,-5.00723 -3.574,-3.57399 -3.574,-3.57399 -3.574,-27.62909 0,-24.0551 0,-24.0551 4.12342,-27.90138 2.26788,-2.11545 5.86788,-4.33065 8,-4.92266 5.07858,-1.41013 42.21224,-1.40951 47.81307,7.9e-4 2.37717,0.59858 5.94049,2.42232 7.91848,4.05274 6.38113,5.25987 7.07783,14.85894 1.07846,14.85894 -2.53592,0 -2.79523,-0.35323 -3.87674,-5.28102 -0.36417,-1.65925 -1.91048,-3.57373 -3.83353,-4.74626 -2.94775,-1.79732 -5.11777,-1.96556 -25.39643,-1.96898 -30.28664,-0.005 -28.32673,-1.79787 -28.32673,25.91084 0,27.69899 -2.3554,25.48374 27.52598,25.88821 24.49609,0.33158 27.54449,-0.22774 29.51698,-5.41579 1.22594,-3.22446 1.22837,-9.54315 0.005,-12.7611 -1.65799,-4.36084 -4.44113,-5.09108 -21.4418,-5.6259 -13.7125,-0.43138 -16.04504,-0.74019 -16.99489,-2.25 -0.80211,-1.27498 -0.80007,-2.22502 0.008,-3.5 0.98203,-1.55037 2.97772,-1.75 17.49489,-1.75 18.54587,0 21.79373,0.8898 26.69286,7.31288 2.44528,3.20594 2.69355,4.32924 2.69355,12.18712 0,7.85788 -0.24827,8.98118 -2.69355,12.18712 -5.13113,6.72725 -7.54652,7.28337 -32.80645,7.55344 -17.51868,0.1873 -23.36919,-0.0767 -26.426,-1.19267 z m 70.676,0.78983 c -0.93508,-0.37731 -1.25,-5.04317 -1.25,-18.51992 0,-21.13835 0.62818,-23.33869 7.88013,-27.6019 4.56766,-2.6852 4.85721,-2.71973 25.61987,-3.05473 23.78939,-0.38383 29.29214,0.39454 34.78233,4.92002 6.45013,5.31674 7.19101,14.91881 1.1511,14.91881 -2.53592,0 -2.79523,-0.35323 -3.87674,-5.28102 -0.36417,-1.65925 -1.91048,-3.57373 -3.83353,-4.74626 -2.94775,-1.79732 -5.11777,-1.96556 -25.39643,-1.96898 -22.17328,-0.004 -22.17328,-0.004 -25.25,2.58515 -3.07673,2.5889 -3.07673,2.5889 -3.07673,19.8 0,12.05309 -0.35963,17.57074 -1.2,18.41111 -1.2291,1.2291 -3.33172,1.43281 -5.55,0.53772 z m 93.59264,-0.27866 c -4.14335,-1.30434 -8.15553,-3.97849 -10.34264,-6.89346 -1.78549,-2.3797 -2,-4.2208 -2,-17.1656 0,-16.40711 0.51967,-17.84806 8,-22.18232 3.87989,-2.24808 4.72069,-2.31768 28,-2.31768 26.96967,0 29.07015,0.44775 34.30645,7.31288 2.62083,3.4361 2.69355,3.9001 2.69355,17.18712 0,13.28702 -0.0727,13.75102 -2.69355,17.18712 -5.14052,6.73957 -7.53845,7.28855 -32.80645,7.51068 -12.375,0.10879 -23.69581,-0.17864 -25.15736,-0.63874 z m 48.17738,-8.56941 c 4.30967,-2.22862 4.97998,-4.31354 4.97998,-15.48965 0,-16.93883 -0.10749,-17 -29.87361,-17 -21.97294,0 -21.97294,0 -25.04966,2.58889 -3.07673,2.5889 -3.07673,2.5889 -3.07673,14.32569 0,10.89829 0.16074,11.88304 2.25,13.78383 1.2375,1.12586 2.925,2.29378 3.75,2.59536 0.825,0.30159 11.08485,0.58386 22.79966,0.62728 17.15747,0.0636 21.86765,-0.21477 24.22036,-1.4314 z m 31.55398,8.02379 c -2.1593,-0.76933 -5.5343,-3.00605 -7.5,-4.97049 -3.574,-3.57171 -3.574,-3.57171 -3.88198,-23.52372 -0.30797,-19.95202 -0.30797,-19.95202 2.26299,-20.59729 5.1283,-1.28713 5.54499,0.1802 5.54499,19.52619 0,24.17774 -2.0761,22.45397 27.52598,22.85466 24.49609,0.33158 27.54449,-0.22774 29.51698,-5.41579 0.52637,-1.38446 0.95704,-10.12933 0.95704,-19.43305 0,-16.91585 0,-16.91585 2.65559,-17.58236 4.72856,-1.18679 5.34696,1.08693 5.32245,19.56954 -0.0186,13.98209 -0.31164,17.19672 -1.88347,20.6578 -2.13831,4.70842 -5.87118,7.69676 -11.59457,9.28201 -6.05788,1.67789 -43.98469,1.39301 -48.926,-0.3675 z m -61.324,-59.17572 c -0.86005,-0.34704 -1.25,-3.11146 -1.25,-8.86141 l 0,-8.35702 -26.75,-0.30964 c -25.87018,-0.29947 -26.88156,-0.38588 -30.75,-2.62733 -7.48033,-4.33426 -8,-5.77521 -8,-22.18232 0,-16.40711 0.51967,-17.84806 8,-22.18231 3.9108,-2.266 4.68572,-2.32445 34.75,-2.62103 l 30.75,-0.30335 0,32.11909 c 0,20.22815 -0.38324,32.83517 -1.03518,34.05334 -0.99742,1.86369 -3.09267,2.33004 -5.71482,1.27198 z m -1.25,-42.33772 0,-17 -25.92327,0 c -25.92328,0 -25.92328,0 -29,2.5889 -3.07673,2.58889 -3.07673,2.58889 -3.07673,14.32568 0,10.8983 0.16074,11.88304 2.25,13.78383 1.2375,1.12586 2.925,2.29378 3.75,2.59536 0.825,0.30159 12.8625,0.58386 26.75,0.62728 l 25.25,0.0789 0,-17 z m 164.25,25.33772 c -0.93059,-0.3755 -1.25,-4.81037 -1.25,-17.35595 0,-9.26836 -0.43067,-17.98431 -0.95704,-19.36877 -1.90881,-5.02055 -4.96094,-5.613 -28.91657,-5.613 -21.97294,0 -21.97294,0 -25.04966,2.5889 -3.07673,2.58889 -3.07673,2.58889 -3.07673,14.32568 0,11.32042 0.0915,11.8228 2.57805,14.16111 2.52603,2.37539 2.97503,2.42955 22.25,2.68404 23.90192,0.31557 24.17195,0.36294 24.17195,4.24027 0,2.28317 -0.54383,3.09839 -2.37321,3.55753 -1.30527,0.3276 -11.31777,0.44868 -22.25,0.26906 -18.65114,-0.30645 -20.12344,-0.4695 -23.87679,-2.64427 -7.48033,-4.33426 -8,-5.77521 -8,-22.18232 0,-16.40711 0.51967,-17.84806 8,-22.18231 3.87989,-2.24809 4.72069,-2.31769 28,-2.31769 26.96745,0 29.06798,0.44758 34.30645,7.31005 2.65584,3.47919 2.69817,3.77703 3.02332,21.27595 0.39033,21.00621 -0.45132,23.7246 -6.57977,21.25172 z m -310.04536,-1.19009 c -1.02215,-0.64842 -1.23307,-6.77719 -1,-29.05788 0.29536,-28.23615 0.29536,-28.23615 4.43283,-32.0941 6.02138,-5.61459 9.35445,-6.18084 34.22483,-5.81443 24.28811,0.35783 26.86374,0.97298 31.94415,7.62934 2.69355,3.52911 2.69355,3.52911 2.99559,30.10927 0.33367,29.36245 0.0479,31.01227 -5.14645,29.70858 -2.65559,-0.66651 -2.65559,-0.66651 -2.65559,-14.64746 l 0,-13.98095 -29,0 -29,0 0,13.3 c 0,13.51694 -0.55437,15.71823 -3.95,15.68469 -0.8525,-0.008 -2.13291,-0.3851 -2.84536,-0.83706 z m 64.79536,-43.69729 c 0,-8.73162 -1.56566,-12.61357 -5.7936,-14.36484 -2.02653,-0.83942 -9.47396,-1.10514 -24.96881,-0.89086 -21.79704,0.30144 -22.11405,0.33653 -24.65925,2.72968 -2.39324,2.25026 -2.57834,3.05793 -2.57834,11.25 l 0,8.82568 29,0 29,0 0,-7.54966 z m 107.574,43.0631 c -2.1593,-0.76933 -5.5343,-3.00605 -7.5,-4.97049 -3.574,-3.57171 -3.574,-3.57171 -3.88198,-23.52372 -0.30797,-19.95202 -0.30797,-19.95202 2.26299,-20.59729 5.1283,-1.28712 5.54499,0.18021 5.54499,19.52619 0,24.17774 -2.0761,22.45397 27.52598,22.85466 24.49609,0.33158 27.54449,-0.22774 29.51698,-5.41579 0.52637,-1.38446 0.95704,-10.12933 0.95704,-19.43305 0,-16.91584 0,-16.91584 2.65559,-17.58235 4.72856,-1.1868 5.34696,1.08692 5.32245,19.56953 -0.0186,13.9821 -0.31164,17.19672 -1.88347,20.6578 -2.13831,4.70842 -5.87118,7.69676 -11.59457,9.28201 -6.05788,1.67789 -43.98469,1.39301 -48.926,-0.3675 z"
         style="fill:#ffffff;fill-opacity:1" />
    </g>
  </g>
</svg>
