<?xml version="1.0" encoding="UTF-8" standalone="no"?>
<svg
   xmlns:dc="http://purl.org/dc/elements/1.1/"
   xmlns:cc="http://creativecommons.org/ns#"
   xmlns:rdf="http://www.w3.org/1999/02/22-rdf-syntax-ns#"
   xmlns:svg="http://www.w3.org/2000/svg"
   xmlns="http://www.w3.org/2000/svg"
   version="1.1"
   id="svg2"
   viewBox="0 0 600.00001 280"
   height="280"
   width="600">
  <defs
     id="defs4" />
  <metadata
     id="metadata7">
    <rdf:RDF>
      <cc:Work
         rdf:about="">
        <dc:format>image/svg+xml</dc:format>
        <dc:type
           rdf:resource="http://purl.org/dc/dcmitype/StillImage" />
        <dc:title></dc:title>
      </cc:Work>
    </rdf:RDF>
  </metadata>
  <g
     transform="translate(0,-772.36216)"
     id="layer1">
    <path
       id="path4745"
       d="m 93.149018,1010.1947 c -18.449346,-6.3751 -27.871039,-18.65128 -27.99994,-36.48299 -0.115445,-15.97467 7.827123,-28.67511 22.821113,-36.49152 7.559066,-3.94059 8.908762,-4.20031 21.878069,-4.21071 12.47096,-0.0131 14.62587,0.36029 22.04606,3.78736 9.05392,4.18148 17.35332,12.18468 20.88227,20.13668 2.99149,6.74092 3.0051,23.02587 0.0248,29.73678 -2.72339,6.13262 -10.47421,14.8542 -16.61825,18.6997 -11.80404,7.388 -29.78287,9.4037 -43.034193,4.8247 z m 26.739552,-6.0879 c 11.68401,-3.4698 16.82617,-11.91165 16.85324,-27.66781 0.015,-8.76564 -0.59502,-11.85506 -3.63929,-18.42933 -6.12141,-13.21935 -13.61362,-19.12004 -24.19926,-19.05856 -6.00492,0.0342 -14.439399,3.7251 -18.427128,8.06231 -10.676076,11.61153 -8.806315,38.23007 3.582072,50.9954 7.535196,7.76459 14.601306,9.43269 25.830366,6.09799 z m 162.45369,7.066 c -2.5076,-0.7629 -6.21884,-2.5687 -8.24725,-4.013 -6.8982,-4.912 -7.49865,-7.73522 -7.65427,-35.99041 -0.0787,-14.28391 -0.45762,-26.79072 -0.84212,-27.79262 -0.38451,-1.00203 -1.52427,-1.82186 -2.53282,-1.82186 -1.15989,0 -1.83374,-1.45119 -1.83374,-3.94915 0,-2.71965 0.64675,-3.94915 2.07751,-3.94915 1.59304,0 1.97677,-1.12471 1.64548,-4.82282 -0.43203,-4.82295 -0.43203,-4.82295 6.80806,-6.52622 11.65138,-2.74097 11.60085,-2.76296 10.95401,4.76714 -0.56539,6.5819 -0.56539,6.5819 15.30241,6.5819 15.86777,0 15.86777,0 15.86777,3.90741 0,3.90742 0,3.90742 -15.46747,4.27825 l -15.46749,0.37083 0,26.9858 c 0,30.69077 0.62274,32.9264 9.94999,35.7209 6.38645,1.9135 11.4769,0.014 19.33949,-7.21651 5.86482,-5.39334 6.5054,-4.8514 4.17713,3.53341 -1.1747,4.2305 -2.39118,5.4891 -7.48127,7.7407 -7.05661,3.1214 -20.03025,4.1923 -26.59542,2.1954 z m 59.23066,-0.257 c -2.51112,-0.8001 -7.33318,-4.1458 -10.71564,-7.4348 -4.70861,-4.57836 -6.36406,-7.28432 -7.06351,-11.54584 -2.72287,-16.58969 7.91169,-25.84555 33.67652,-29.31093 11.49083,-1.54543 19.17424,-4.43527 21.35191,-8.03084 2.0588,-3.39928 -0.17661,-8.97258 -4.70292,-11.72514 -9.86787,-6.00098 -23.33615,-4.47674 -36.68633,4.15187 -4.42777,2.86181 -8.22745,5.02423 -8.44373,4.80544 -1.22819,-1.24226 2.07017,-12.00078 4.14949,-13.53463 4.77908,-3.5254 14.39364,-5.29251 28.79649,-5.29251 13.62545,0 14.90149,0.23314 21.61749,3.94915 12.19528,6.74777 12.50126,7.57511 13.30192,35.96392 0.61251,21.71673 1.03544,25.33967 3.62005,31.00971 1.60961,3.5312 2.92654,6.6412 2.92654,6.911 0,0.27 -4.37026,0.4909 -9.71169,0.4909 -10.80784,0 -11.94726,-0.7014 -13.35212,-8.2191 -0.92093,-4.928 -0.92093,-4.928 -7.22384,0.7389 -9.22138,8.2907 -20.07833,10.7254 -31.54063,7.0729 z m 26.28599,-11.30047 c 7.62601,-5.46022 11.82761,-15.3723 11.84009,-27.93229 0.008,-7.38872 0.008,-7.38872 -5.58728,-5.68584 -3.07704,0.93661 -9.82605,2.92644 -14.99779,4.42198 -11.68139,3.3781 -17.58263,9.10976 -17.58263,17.07742 0,12.6447 15.57798,19.8155 26.32761,12.11873 z m 156.69095,11.30047 c -6.84124,-2.1799 -16.73549,-12.35292 -17.8482,-18.35114 -2.8116,-15.15602 6.62932,-25.37588 26.5098,-28.69724 19.38006,-3.23777 22.84216,-4.12488 26.10088,-6.68813 10.12395,-7.96357 -3.93922,-19.8967 -20.81059,-17.6586 -7.36568,0.97703 -14.93271,4.48255 -22.45101,10.4006 -5.14414,4.04919 -5.16278,4.05274 -4.29621,0.81208 0.47869,-1.79015 0.87843,-4.91656 0.88831,-6.94759 0.0155,-3.20092 1.0263,-4.1653 7.58717,-7.23905 6.84299,-3.20592 9.02156,-3.5462 22.70756,-3.54711 14.18879,-0.001 15.63383,0.24655 23.03667,3.94795 12.56611,6.28308 13.76638,9.42449 13.83159,36.20047 0.0487,20.02676 0.30657,22.33609 3.3065,29.61856 1.78949,4.3441 3.25635,8.0464 3.25972,8.2274 0.004,0.181 -4.69297,0.3291 -10.43625,0.3291 -11.35721,0 -10.71746,0.4571 -12.63049,-9.0214 -0.8909,-4.41412 -0.8909,-4.41412 -5.6929,0.2571 -9.19509,8.9446 -21.47661,12.0489 -33.06255,8.357 z m 26.28599,-11.3526 c 7.58672,-5.31173 11.82759,-15.30122 11.84009,-27.88951 0.008,-7.39805 0.008,-7.39805 -13.04629,-3.75945 -14.98,4.17543 -19.93732,6.73697 -22.96841,11.86823 -8.61029,14.57603 9.93491,29.75043 24.17461,19.78073 z m -535.033678,8.798 c 0.572221,-1.629 1.271166,-17.24785 1.553208,-34.70872 0.503337,-31.16071 0.462734,-31.76006 -2.198802,-32.45603 -3.538694,-0.92542 -3.363795,-7.53984 0.199367,-7.53984 2.01542,0 2.349718,-1.25095 2.374559,-8.88557 0.05384,-16.54545 6.478383,-24.34804 23.66595,-28.74212 9.842612,-2.5164 22.778358,-1.94311 30.605849,1.3564 4.362551,1.83885 4.936428,2.61433 4.936428,6.67037 0,2.52442 -0.262328,4.58969 -0.582946,4.58969 -0.320632,0 -2.709138,-1.25451 -5.307819,-2.7877 -2.931975,-1.72986 -7.830781,-3.01017 -12.909958,-3.37388 -14.913747,-1.06798 -21.531614,5.24498 -22.92532,21.86903 -0.779995,9.30378 -0.779995,9.30378 14.636741,9.30378 15.416742,0 15.416742,0 15.000213,3.62006 -0.416529,3.62005 -0.416529,3.62005 -15.292029,3.99284 l -14.875492,0.37293 0.519154,31.22021 c 0.285537,17.17127 0.976755,32.84935 1.536046,34.84035 1.016904,3.6201 1.016904,3.6201 -10.479322,3.6201 -11.352696,0 -11.48324,-0.037 -10.455827,-2.9619 z m 152.798158,0.6582 c 1.58261,-3.2757 2.19051,-61.2779 0.69646,-66.45272 -0.68323,-2.36646 -1.66606,-5.33938 -2.18404,-6.6064 -0.84776,-2.07369 0.0501,-2.30367 8.99422,-2.30367 5.4648,0 10.26246,0.52827 10.66147,1.17382 0.39899,0.64569 0.87823,3.31018 1.06496,5.92108 0.18674,2.61104 0.40918,4.74845 0.4943,4.7499 0.0852,0.001 4.07364,-2.62526 8.86335,-5.83709 12.80304,-8.5853 26.23233,-9.66948 37.98138,-3.06612 8.99163,5.05359 9.51144,7.09042 10.33506,40.49898 0.4016,16.29022 1.20545,30.65522 1.78631,31.92222 0.9621,2.0986 0.0343,2.3037 -10.42045,2.3037 -11.47657,0 -11.47657,0 -10.69892,-4.2783 0.42772,-2.353 0.85078,-16.34704 0.94012,-31.09774 0.14867,-24.54431 -0.052,-27.10691 -2.36579,-30.20594 -7.38491,-9.89128 -25.37495,-3.39165 -33.70932,12.17876 -2.53842,4.7424 -2.86652,7.38938 -2.86652,23.12645 0,9.77412 0.48057,20.58487 1.06795,24.02397 1.06794,6.2528 1.06794,6.2528 -10.3428,6.2528 -10.41377,0 -11.31349,-0.2013 -10.29774,-2.3037 z m 247.37284,-0.6582 c 0.56738,-1.629 1.26926,-15.74717 1.55973,-31.3738 0.47171,-25.37692 0.25912,-29.20879 -1.99014,-35.87138 -2.51828,-7.45941 -2.51828,-7.45941 7.66763,-7.45941 11.24455,0 11.78395,0.40282 11.78395,8.80054 0,4.63603 0,4.63603 4.85034,0.37741 6.90082,-6.05904 17.07642,-10.46615 24.20022,-10.48142 8.94052,-0.0184 18.55092,3.29779 22.99965,7.93817 3.89598,4.0638 3.89598,4.0638 4.70744,33.26955 0.44631,16.06314 1.26082,31.13094 1.81003,33.48394 0.99855,4.2783 0.99855,4.2783 -10.49607,4.2783 -10.49134,0 -11.39801,-0.201 -10.38776,-2.3037 1.89643,-3.9469 2.18974,-56.78194 0.34002,-61.2475 -4.91624,-11.86888 -24.04833,-7.55602 -33.37557,7.52378 -3.99011,6.45092 -3.99011,6.45092 -3.99011,26.96093 0,11.28059 0.49134,22.43519 1.09188,24.78819 1.09187,4.2783 1.09187,4.2783 -10.35549,4.2783 -11.2994,0 -11.43402,-0.038 -10.41575,-2.9619 z m 11.22133,-91.57979 c -0.94735,-2.28722 -4.09974,-6.30613 -7.00529,-8.93112 -20.00016,-18.06899 -56.19965,-15.98298 -71.5346,4.12211 -3.48665,4.57126 -3.48665,4.57126 -30.48845,4.57126 -27.00181,0 -27.00181,0 -26.23221,-4.74252 1.29257,-7.96516 8.00013,-20.55717 14.82117,-27.82361 13.48199,-14.36235 32.01127,-21.92731 53.8637,-21.99097 10.37406,-0.0302 15.03027,0.60293 21.97097,2.98758 20.23325,6.95165 36.57654,22.19829 44.69578,41.69667 2.19261,5.26552 2.19261,5.26552 3.68728,1.31638 8.57652,-22.66032 27.7343,-40.7728 50.00465,-47.2763 8.90959,-2.60182 26.07949,-2.67222 35.57277,-0.14584 19.76103,5.25886 38.58651,20.02337 46.83719,36.73365 2.5451,5.15469 4.98628,11.5935 5.42483,14.30854 0.79737,4.93642 0.79737,4.93642 -27.21144,4.93642 -28.00882,0 -28.00882,0 -34.44018,-6.01573 -3.53724,-3.30872 -9.643,-7.48612 -13.56832,-9.28324 -25.22014,-11.54614 -50.4804,-4.63775 -63.28218,17.30685 -1.25464,2.1507 -1.56452,1.97457 -3.11567,-1.77013 z m -2.05816,-24.92299 c -5.85106,-11.25224 -19.30406,-24.08539 -31.09614,-29.66336 -12.53989,-5.9317 -21.67827,-8.01499 -34.73776,-7.91918 -15.47693,0.1136 -30.02776,4.41737 -43.95144,12.99992 -5.77636,3.56057 -5.77636,3.56057 -2.0436,-3.29778 4.5659,-8.38903 16.79516,-21.93491 25.7128,-28.48106 5.92673,-4.35062 7.40736,-4.84075 14.1621,-4.68807 9.83969,0.22244 21.20102,3.18718 31.59174,8.24389 15.20049,7.39744 33.28696,27.45413 41.46265,45.97931 3.04578,6.90143 3.04578,6.90143 5.34082,1.10628 3.86978,-9.77162 14.01152,-24.92542 22.41277,-33.48918 15.29054,-15.58633 33.21191,-24.30301 49.96661,-24.30301 8.13171,0 8.13171,0 19.27796,9.58963 9.79431,8.42649 24.61278,25.43052 23.30317,26.74013 -0.25968,0.25969 -4.98451,-1.79473 -10.49961,-4.56535 -38.40909,-19.29562 -84.79557,-4.78298 -102.90147,32.19413 -1.9191,3.91929 -3.61912,7.12467 -3.77779,7.12283 -0.15869,-10e-4 -2.05896,-3.40784 -4.22281,-7.56913 z m -1.32098,-26.46036 C 415.02922,848.678 394.3089,831.24272 373.09323,822.71747 l -8.51437,-3.42138 8.55611,-4.00388 c 21.53039,-10.07529 47.68226,-14.66834 69.35264,-12.18039 14.68104,1.68552 24.79835,4.08999 37.58418,8.93225 9.58296,3.62927 11.7442,5.38596 7.99032,6.49469 -7.40534,2.18724 -22.13148,10.80889 -30.31406,17.74789 -10.34942,8.77651 -22.49882,23.77187 -26.47872,32.68124 -2.56304,5.73764 -2.56304,5.73764 -7.45397,-3.56983 z"
       style="fill:#000000" />
  </g>
</svg>
