<?xml version="1.0" encoding="UTF-8" standalone="no"?>
<svg
   xmlns:dc="http://purl.org/dc/elements/1.1/"
   xmlns:cc="http://creativecommons.org/ns#"
   xmlns:rdf="http://www.w3.org/1999/02/22-rdf-syntax-ns#"
   xmlns:svg="http://www.w3.org/2000/svg"
   xmlns="http://www.w3.org/2000/svg"
   version="1.1"
   id="svg2"
   viewBox="0 0 600.00001 280"
   height="280"
   width="600">
  <defs
     id="defs4" />
  <metadata
     id="metadata7">
    <rdf:RDF>
      <cc:Work
         rdf:about="">
        <dc:format>image/svg+xml</dc:format>
        <dc:type
           rdf:resource="http://purl.org/dc/dcmitype/StillImage" />
        <dc:title></dc:title>
      </cc:Work>
    </rdf:RDF>
  </metadata>
  <g
     transform="translate(0,-772.36216)"
     id="layer1">
    <path
       id="path4532"
       d="m 98.68749,1045.2162 c 0.0218,-2.8522 5.44155,-23.4964 9.95848,-37.9324 11.30823,-36.14077 31.45683,-90.83095 59.89218,-162.56777 7.17749,-18.10739 11.00837,-24.29754 16.08404,-25.98942 1.27466,-0.42489 1.14653,-3.1091 -0.64822,-13.57985 l -2.2369,-13.05029 2.0268,-3.09329 c 2.85851,-4.36262 6.49952,-5.98818 11.36723,-5.07499 8.05961,1.51199 9.64179,7.96205 6.06807,24.73772 l -1.79888,8.44427 2.09041,1.55688 c 6.93705,5.16652 8.69912,8.48366 20.74663,39.05621 6.88688,17.47657 15.12924,38.67704 18.31634,47.11217 3.18711,8.43512 5.98435,15.57879 6.21606,15.87482 0.74454,0.95115 10.07422,-10.137 14.39952,-17.11353 4.24714,-6.85046 10.5063,-23.54154 10.5063,-28.01678 0,-5.70348 1.03827,-6.32539 10.56014,-6.32539 l 9.07068,0 -0.0182,2.14712 c -0.0334,3.94568 -3.69692,18.00499 -6.87818,26.39554 -4.22456,11.14222 -13.41658,24.94057 -22.71067,34.09152 l -7.63172,7.51407 2.58558,7.56154 c 22.55321,65.95715 29.77645,89.50265 29.72783,96.90335 -0.0139,2.1106 -24.37,-49.43527 -42.3814,-89.69331 l -2.90191,-6.48615 -5.8756,2.97235 c -11.98444,6.06286 -22.12013,8.40985 -39.00261,9.03104 -17.90053,0.65874 -28.28419,-0.94927 -41.32056,-6.39891 -4.26608,-1.78334 -8.49922,-3.33969 -9.407,-3.45846 -1.50289,-0.19668 -8.57029,13.95371 -21.64614,43.33983 -7.76134,17.44261 -23.76863,51.76851 -24.46699,52.46691 -0.38498,0.385 -0.69609,0.1938 -0.69135,-0.4248 z M 212.70144,939.61924 c 9.36962,-2.43153 19.73076,-7.31887 19.62543,-9.25717 -0.0479,-0.88093 -7.64146,-17.88902 -16.87467,-37.7959 l -16.78765,-36.19434 -5.82821,-0.37415 -5.82821,-0.37415 -1.09259,2.828 c -0.60092,1.5554 -4.18755,9.37208 -7.97028,17.3704 -3.78274,7.99831 -6.8777,14.7304 -6.8777,14.96019 0,0.22979 -4.14088,9.27825 -9.20195,20.1077 -5.06107,10.82944 -9.20195,20.17884 -9.20195,20.77635 0,1.11074 8.20765,4.89851 16.00801,7.38758 12.29472,3.92297 30.20581,4.15302 44.02977,0.56549 z m 84.72937,25.02881 2.09686,-7.66829 28.18899,-0.61347 28.189,-0.61346 7.21926,-3.69513 c 11.62908,-5.95232 16.7388,-15.39352 16.92497,-31.27222 0.13975,-11.9192 -2.33267,-19.0995 -8.9129,-25.88443 -7.19883,-7.4228 -14.46222,-9.69644 -30.97624,-9.69644 l -12.04658,0 0,30.0597 0,30.05964 -10.42887,0 -10.42888,0 0,-38.03466 0,-38.03473 24.2318,0.0182 c 31.46342,0.0236 41.71228,2.3442 54.29151,12.29327 16.10352,12.73646 20.80849,44.6637 9.77034,66.30018 -5.74675,11.26466 -19.26809,20.22564 -34.87065,23.1099 -3.98776,0.73726 -20.32183,1.34029 -36.29796,1.34029 l -29.0475,0 2.09685,-7.66829 z m 141.10676,-35.85288 0,-43.52131 -16.76601,-0.34136 -16.76602,-0.34135 -2.15626,-6.13464 c -1.18593,-3.37405 -2.19924,-6.96281 -2.25176,-7.97502 l -0.0956,-1.84039 48.95753,0.33389 48.95752,0.3339 -2.58404,7.94786 -2.58399,7.94786 -16.92682,0 -16.92681,0 0,43.55583 0,43.5559 -10.42888,0 -10.42888,0 0,-43.52117 z"
       style="fill:#000000" />
  </g>
</svg>
