<?xml version="1.0" encoding="UTF-8" standalone="no"?>
<svg
   xmlns:dc="http://purl.org/dc/elements/1.1/"
   xmlns:cc="http://creativecommons.org/ns#"
   xmlns:rdf="http://www.w3.org/1999/02/22-rdf-syntax-ns#"
   xmlns:svg="http://www.w3.org/2000/svg"
   xmlns="http://www.w3.org/2000/svg"
   version="1.1"
   id="svg2"
   viewBox="0 0 600.00001 280"
   height="280"
   width="600">
  <defs
     id="defs4" />
  <metadata
     id="metadata7">
    <rdf:RDF>
      <cc:Work
         rdf:about="">
        <dc:format>image/svg+xml</dc:format>
        <dc:type
           rdf:resource="http://purl.org/dc/dcmitype/StillImage" />
        <dc:title></dc:title>
      </cc:Work>
    </rdf:RDF>
  </metadata>
  <g
     transform="translate(0,-772.36216)"
     id="layer1">
    <path
       id="path4201"
       d="m 46.659761,964.81665 c -0.207877,-0.20789 -0.377956,-17.70747 -0.377956,-38.888 l 0,-38.51005 -17.773871,0 -17.77387,0 0,-11.66411 0,-11.6641 53.877045,0 53.877041,0 0,11.6641 0,11.66411 -18.04781,0 -18.047807,0 -0.142636,38.74148 -0.142636,38.7415 -17.534771,0.14652 c -9.644125,0.0806 -17.704853,-0.0234 -17.912729,-0.23145 z m 186.525399,-0.17879 -94.42369,-0.29171 -3.61032,-1.71885 c -6.00973,-2.86114 -9.91812,-7.7298 -12.02996,-14.98575 -0.83817,-2.87982 -0.98385,-6.86428 -1.16588,-31.8887 -0.13332,-18.32955 0.004,-30.17787 0.38427,-32.99864 1.09595,-8.14362 4.62599,-13.43 11.07497,-16.5853 l 3.68062,-1.8008 39.99121,-0.1685 c 29.17507,-0.12292 40.58865,0.006 42.20019,0.47666 5.34592,1.5613 10.29204,6.90712 13.69898,14.80598 l 1.86591,4.32602 0,25.54995 0,25.54994 -13.46926,0.14873 -13.46926,0.14874 -0.001,-20.14435 c -5.5e-4,-22.17657 -0.0556,-22.56918 -3.51132,-25.10375 -1.52935,-1.1217 -2.16806,-1.15035 -25.64828,-1.15035 -23.57076,0 -24.11301,0.0246 -25.64783,1.16309 -0.86238,0.6397 -2.12623,2.13937 -2.80855,3.3326 -1.21495,2.1247 -1.24077,2.55141 -1.24972,20.65551 -0.0102,19.9963 0.0862,20.7431 3.01871,23.44922 l 1.50472,1.3886 40.76785,0.14938 40.76785,0.14939 0.15081,10.47011 0.15082,10.47013 7.7929,-10.61951 7.7929,-10.6195 39.5578,-0.14257 39.55781,-0.14255 0,-4.71749 c 0,-4.57653 -0.0389,-4.71749 -1.30054,-4.71749 -4.82626,0 -41.36301,-2.87131 -53.40965,-4.19731 -16.30886,-1.79514 -22.37157,-3.28514 -27.89623,-6.85591 -4.03583,-2.60847 -7.02862,-6.00396 -9.10575,-10.33097 -1.59884,-3.33063 -1.59978,-3.33914 -1.60021,-14.47931 -3.4e-4,-8.55562 0.20412,-11.83552 0.87953,-14.1099 1.95955,-6.59852 6.49572,-11.0245 14.02154,-13.68093 l 3.70551,-1.30795 98.89696,-0.0117 98.89695,-0.0117 2.78586,1.38825 c 5.80059,2.89056 10.19127,8.07684 12.40759,14.65586 1.15009,3.41401 1.17131,4.15727 1.01458,35.54757 l -0.16005,32.06063 -2.05901,4.16513 c -2.28451,4.62131 -6.10199,8.76873 -10.29434,11.18403 l -2.64336,1.52289 -40.57644,0.005 -40.57646,0.005 -2.82269,-1.40657 c -3.73612,-1.8616 -8.16657,-6.63416 -10.20748,-10.99551 -3.04362,-6.50406 -3.27527,-8.92875 -3.28587,-34.39298 l -0.009,-23.18935 14.16356,0 14.16355,0 0,20.57862 c 0,22.32159 0.0792,22.95461 3.03937,24.30336 1.06024,0.48309 8.25919,0.66356 26.46747,0.66356 l 25.01109,0 1.62358,-1.62357 1.62357,-1.62357 0,-21.46343 c 0,-13.56736 -0.20902,-21.85398 -0.56817,-22.52505 -1.33014,-2.48541 -0.94601,-2.4616 -44.42194,-2.75338 l -41.37979,-0.27772 -0.27772,-10.93167 -0.27772,-10.93167 -9.42796,11.34824 -9.42797,11.34825 -34.0347,0 -34.0347,0 0,5.55434 c 0,4.06765 0.18583,5.5571 0.69429,5.56468 0.38186,0.006 14.81619,0.85988 32.07628,1.8982 28.21833,1.69755 31.77395,2.01677 35.27002,3.16641 7.67601,2.52418 14.24184,8.66786 16.9236,15.83554 1.12064,2.99518 1.19211,4.03155 1.02735,14.89908 -0.17028,11.23153 -0.2324,11.79727 -1.61805,14.73487 -3.49919,7.41832 -11.19473,11.74948 -21.88723,12.31841 -2.13842,0.11376 -46.37869,0.0756 -98.31172,-0.0849 z m 274.48437,0.17879 c -0.20788,-0.20789 -0.37796,-17.70747 -0.37796,-38.888 l 0,-38.51005 -17.77387,0 -17.77387,0 0,-11.66411 0,-11.6641 53.87705,0 53.87705,0 0,11.6641 0,11.66411 -18.04782,0 -18.04781,0 -0.14264,38.74148 -0.14263,38.7415 -17.53477,0.14652 c -9.64413,0.0806 -17.70486,-0.0234 -17.91273,-0.23145 z"
       style="fill:#000000" />
  </g>
</svg>
