<?xml version="1.0" encoding="UTF-8" standalone="no"?>
<svg
   xmlns:dc="http://purl.org/dc/elements/1.1/"
   xmlns:cc="http://creativecommons.org/ns#"
   xmlns:rdf="http://www.w3.org/1999/02/22-rdf-syntax-ns#"
   xmlns:svg="http://www.w3.org/2000/svg"
   xmlns="http://www.w3.org/2000/svg"
   version="1.1"
   id="svg2"
   viewBox="0 0 600.00001 280"
   height="280"
   width="600">
  <defs
     id="defs4" />
  <metadata
     id="metadata7">
    <rdf:RDF>
      <cc:Work
         rdf:about="">
        <dc:format>image/svg+xml</dc:format>
        <dc:type
           rdf:resource="http://purl.org/dc/dcmitype/StillImage" />
        <dc:title></dc:title>
      </cc:Work>
    </rdf:RDF>
  </metadata>
  <g
     transform="translate(0,-772.36216)"
     id="layer1">
    <g
       transform="translate(7.6725919,-12.717043)"
       id="layer1-9">
      <path
         id="path4440"
         d="m 34.555511,961.0773 c -4.686354,-2.0404 -6.493025,-4.9906 -16.360317,-26.71559 l -3.974136,-8.74995 -0.163941,17.94622 -0.163942,17.94622 -2.857192,-0.3916 c -1.571449,-0.2154 -4.278086,-0.3915 -6.0147529,-0.3912 l -3.1575806,4e-4 0.1480824,-19.30886 c 0.081564,-10.61986 0.3057019,-20.22906 0.4983124,-21.35377 0.4752646,-2.77508 4.0893887,-6.61487 7.4252447,-7.88883 5.448868,-2.08095 11.626923,0.23417 15.056613,5.64222 0.960127,1.51398 4.339276,9.14444 7.509193,16.95658 3.169918,7.81211 5.957311,13.99723 6.194244,13.74467 0.236932,-0.25255 3.152123,-6.99315 6.478217,-14.97912 3.326093,-7.98596 6.671526,-15.52892 7.434286,-16.76215 2.201345,-3.55911 5.35421,-5.16311 10.158514,-5.16805 5.29475,-0.006 8.357552,1.87428 10.694187,6.5633 l 1.620615,3.25215 0,19.65049 0,19.65057 -5.869765,0 -5.869759,0 0,-17.73291 c 0,-9.75306 -0.228899,-17.46871 -0.508671,-17.14587 -0.279772,0.32284 -3.505276,7.16111 -7.16778,15.19615 -3.662503,8.03504 -7.513909,15.64623 -8.558685,16.91373 -3.120611,3.7858 -8.154599,5.0392 -12.551029,3.1252 z m 47.322244,-24.76219 0,-25.02372 7.1055,0 7.105505,0 0,25.02372 0,25.02369 -7.105505,0 -7.1055,0 z m 20.389695,-0.30893 0,-24.76062 29.19433,0.17731 29.19432,0.17734 2.99214,1.52832 c 3.35011,1.71117 6.24006,4.69828 7.74341,8.00372 0.82228,1.80798 1.00398,4.49971 1.00398,14.8738 0,12.07402 -0.0684,12.80374 -1.46007,15.60505 -1.59417,3.2087 -3.81016,5.3399 -7.73602,7.4401 -2.50354,1.3393 -3.00124,1.3635 -31.73776,1.5381 l -29.19433,0.1773 0,-24.76062 z m 56.84398,0 0,-12.3574 -21.93437,0 -21.93435,0 0,12.3574 0,12.35738 21.93435,0 21.93437,0 z m 27.49519,24.13992 c -4.83409,-1.1693 -9.43979,-4.7732 -10.85412,-8.49312 -0.98381,-2.58762 -0.66589,-7.48846 0.65357,-10.0748 1.21677,-2.38506 4.10096,-4.97532 6.49333,-5.83153 0.67966,-0.24326 12.74949,-2.92396 26.82185,-5.95715 14.07235,-3.03318 25.72691,-5.65568 25.89903,-5.8278 0.17218,-0.17218 -12.94039,-0.31292 -29.13886,-0.31292 l -29.45178,0 0,-6.17869 0,-6.1787 32.77169,0 c 31.03476,0 32.89321,0.0625 35.06409,1.17917 10.10373,5.19709 9.95177,19.3431 -0.25145,23.40976 -0.97967,0.39046 -12.74477,3.08498 -26.14465,5.98779 -13.39988,2.90281 -24.50124,5.41566 -24.66968,5.5841 -0.16846,0.16846 12.29046,0.23384 27.68643,0.1454 l 27.99264,-0.16085 7.0443,-13.59313 c 8.02318,-15.48206 10.01472,-18.64984 13.01904,-20.70843 4.92566,-3.3751 12.4992,-1.96244 16.08642,3.00058 0.92997,1.28663 6.41756,11.39823 12.19465,22.47022 l 10.50377,20.1309 0.16167,-23.72275 0.16168,-23.72276 27.99573,0 c 30.71935,0 31.32258,0.0628 35.76364,3.7235 4.9406,4.0725 6.98587,12.73031 4.26712,18.06307 -1.15646,2.26825 -1.15541,2.28596 0.30894,5.17831 1.36308,2.69245 1.4693,3.60951 1.4693,12.68348 l 0,9.78125 -6.48763,0 -6.48764,0 0,-9.276 0,-9.27595 -21.77989,0.16229 -21.7799,0.16229 -0.17094,9.12581 -0.17115,9.12586 -13.08734,-0.1668 -13.08732,-0.1667 -3.62694,-6.3331 -3.62694,-6.33319 -12.21986,0 -12.21989,0 -3.33293,6.47999 -3.33296,6.4801 -34.29174,-0.056 c -18.86047,-0.031 -35.12588,-0.2574 -36.14536,-0.504 z m 94.83292,-25.2212 c -0.006,-0.25487 -1.21555,-2.6474 -2.68895,-5.31674 l -2.67887,-4.85333 -2.87191,4.979 c -1.57953,2.73846 -2.87189,5.13099 -2.87189,5.31675 0,0.18577 2.50237,0.33772 5.56082,0.33772 3.05846,0 5.55632,-0.20853 5.5508,-0.4634 z m 84.04027,-8.19467 0,-3.09726 -21.7799,0.16229 -21.7799,0.16229 -0.19813,2.06691 c -0.38481,4.01697 -1.62981,3.80286 22.113,3.80286 l 21.64482,0 0,-3.09726 z m 30.72942,33.31847 c -5.32084,-1.2536 -10.024,-4.9628 -11.85308,-9.34827 -0.76844,-1.84237 -0.95813,-5.02964 -0.95813,-16.09812 l 0,-13.80093 1.79208,-2.82585 c 1.33916,-2.11156 2.70564,-3.2744 5.40634,-4.60051 3.55071,-1.74346 3.82894,-1.7784 15.81721,-1.98503 l 12.20293,-0.21034 0,6.23456 0,6.23457 -11.43059,0 -11.43058,0 0,12.04846 0,12.04845 22.55223,0 22.55224,0 0,-2.78042 0,-2.7804 -11.12165,0 -11.12165,0 0,-6.48763 0,-6.48763 9.14508,0 9.14502,0 -2.85381,-3.03971 c -3.41206,-3.63427 -6.34948,-9.01229 -7.40906,-13.56494 -1.5291,-6.56982 0.75021,-16.16169 5.97276,-25.13457 10.22802,-17.57299 11.32876,-20.53415 10.18928,-27.41087 -0.36546,-2.20558 -0.55151,-4.12319 -0.41341,-4.2613 0.57079,-0.57079 7.27868,6.50367 8.97054,9.46069 4.04772,7.07469 4.55913,14.31037 1.6219,22.94623 -1.76173,5.1797 -2.72802,7.09221 -8.38615,16.59863 -5.24683,8.81528 -7.1608,14.37333 -6.59816,19.16046 0.64826,5.51578 0.21167,5.24538 8.46925,5.24538 l 7.3314,0 0.17135,8.60917 0.17156,8.60914 7.32478,-14.10779 c 4.02857,-7.75928 8.15655,-15.117 9.17333,-16.35046 3.51671,-4.2664 9.4516,-5.85692 14.29823,-3.83187 3.43449,1.43502 6.02028,5.28585 14.54699,21.66373 4.52355,8.68877 8.26667,15.79747 8.31794,15.79709 0.0513,-3.7e-4 0.13388,-1.34821 0.18331,-2.99521 0.10915,-3.63533 1.29999,-6.0836 4.19551,-8.6259 2.62836,-2.30777 0.99811,-1.86965 31.55101,-8.47888 13.59313,-2.94048 24.83063,-5.45962 24.97225,-5.59808 0.14149,-0.13841 -12.9959,-0.25177 -29.19433,-0.25177 l -29.4518,0 0,-6.17869 0,-6.1787 32.59261,0.0144 c 36.60802,0.0144 35.64897,-0.0966 39.52542,4.60633 5.3319,6.46847 3.42466,16.32564 -3.775,19.51037 -1.44452,0.639 -13.56804,3.53593 -26.94114,6.4376 -13.37311,2.90168 -24.45213,5.41318 -24.62006,5.58111 -0.16785,0.16785 12.39193,0.30531 27.91071,0.30531 l 28.21605,0 0,6.48759 0,6.4877 -30.78133,0 c -33.47857,0 -35.05297,-0.1401 -39.00863,-3.4685 -2.04465,-1.7205 -2.33591,-1.4168 -0.95609,0.997 0.48565,0.8496 0.89289,1.7532 0.90494,2.0081 0.0123,0.2548 -3.01483,0.4634 -6.72631,0.4634 l -6.74819,0 -3.62745,-6.3332 -3.62738,-6.33315 -12.33113,0 -12.33108,0 -3.2663,6.33315 -3.2663,6.3332 -7.08301,0 c -3.89567,0 -7.08301,-0.1529 -7.08301,-0.3397 0,-0.1868 0.4448,-1.1997 0.98841,-2.251 l 0.98846,-1.9114 -2.1052,1.3011 c -4.57279,2.8261 -8.06159,3.2052 -28.88687,3.1389 -10.71812,-0.034 -20.53453,-0.3087 -21.81413,-0.6102 z m 89.13724,-25.30737 c 0,-0.73337 -5.00319,-10.01778 -5.24478,-9.73277 -0.64616,0.76232 -5.259,9.37327 -5.259,9.81719 0,0.30942 2.36335,0.56255 5.25189,0.56255 3.24684,0 5.25189,-0.247 5.25189,-0.64697 z"
         style="fill:#000000" />
    </g>
  </g>
</svg>
