<?xml version="1.0" encoding="UTF-8" standalone="no"?>
<svg
   xmlns:dc="http://purl.org/dc/elements/1.1/"
   xmlns:cc="http://creativecommons.org/ns#"
   xmlns:rdf="http://www.w3.org/1999/02/22-rdf-syntax-ns#"
   xmlns:svg="http://www.w3.org/2000/svg"
   xmlns="http://www.w3.org/2000/svg"
   version="1.1"
   id="svg2"
   viewBox="0 0 600.00001 280"
   height="280"
   width="600">
  <defs
     id="defs4" />
  <metadata
     id="metadata7">
    <rdf:RDF>
      <cc:Work
         rdf:about="">
        <dc:format>image/svg+xml</dc:format>
        <dc:type
           rdf:resource="http://purl.org/dc/dcmitype/StillImage" />
        <dc:title></dc:title>
      </cc:Work>
    </rdf:RDF>
  </metadata>
  <g
     transform="translate(0,-772.36216)"
     id="layer1">
    <path
       id="path4431"
       d="m 109.15738,998.03839 c -1.80898,-0.80403 -2.61549,-2.38185 -2.35412,-4.60564 0.2021,-1.7196 -0.17001,-2.20439 -1.69202,-2.20439 -1.23335,0 -6.706854,-1.44639 -9.260712,-2.4472 -13.196725,-5.17147 -23.018215,-16.0815 -26.577335,-29.52297 -1.186059,-4.47933 -1.541188,-7.37578 -1.588649,-12.95723 l -0.04453,-5.23944 -1.46375,-0.14303 c -2.375163,-0.23207 -3.902982,-1.36979 -4.355882,-3.24369 -0.213233,-0.88225 0.291364,-4.34406 0.767111,-5.26274 0.488488,-0.9433 1.427318,-1.74376 2.623257,-2.23666 l 1.030514,-0.42471 14.419714,0 14.419725,0 1.366977,0.68119 c 1.129617,0.56291 1.443265,0.88091 1.806237,1.83135 l 0.43925,1.15015 -0.284766,2.32804 c -0.224349,1.83413 -0.434635,2.52452 -0.9912,3.25422 -0.880601,1.15452 -2.519332,1.91932 -4.1289,1.92696 -0.677357,0.003 -1.349546,0.15555 -1.493749,0.33851 -0.751348,0.95336 -0.535894,7.38972 0.352107,10.51833 0.237965,0.83841 0.976389,2.6457 1.640919,4.01622 2.626052,5.41584 9.769942,11.17252 14.030342,11.30591 0.99384,0.0311 1.33618,-0.0576 1.3795,-0.35783 0.2742,-1.89968 0.47028,-2.48641 1.06861,-3.19748 1.23431,-1.46689 2.51485,-1.92169 5.11756,-1.81763 2.43108,0.0972 3.08438,0.38034 4.16827,1.80638 0.42689,0.56165 0.51001,1.0716 0.47616,2.9212 -0.0225,1.2324 -0.17473,3.14861 -0.33815,4.2582 -0.27889,1.89346 -0.47604,4.21085 -1.07968,12.69003 -0.13653,1.91778 -0.36752,4.25313 -0.5133,5.18967 -0.1458,0.93651 -0.3466,2.78063 -0.44623,4.09801 -0.0997,1.31737 -0.33407,2.69464 -0.52098,3.06057 -0.46515,0.9107 -1.69633,2.03675 -2.60031,2.37832 -1.04164,0.39356 -4.40869,0.33548 -5.37195,-0.0926 z m 12.52574,-7.58047 c -0.0809,-0.13099 -0.0282,-0.8659 0.11736,-1.63315 0.1455,-0.76725 0.26201,-2.12715 0.25892,-3.02201 -0.003,-0.89486 0.23789,-3.78274 0.53553,-6.4175 0.29765,-2.63476 0.67433,-6.55011 0.83705,-8.70079 l 0.29589,-3.91033 2.10028,-1.06567 c 5.78617,-2.93589 10.64089,-7.63273 13.29536,-12.86299 1.04117,-2.05147 2.36949,-5.73904 2.36975,-6.5787 1.3e-4,-0.37451 0.17948,-1.54016 0.39857,-2.59034 0.52119,-2.49825 0.40903,-2.748 -1.23421,-2.748 -1.71265,0 -2.93068,-0.53144 -3.74754,-1.63511 -0.98011,-1.32428 -1.04782,-1.70173 -0.72835,-4.06072 0.34591,-2.55419 0.81913,-3.46869 2.35275,-4.54676 l 1.14103,-0.8021 14.87887,-0.073 14.87887,-0.073 1.0415,0.53133 c 2.12513,1.08416 2.63357,2.42582 2.17332,5.7349 -0.46414,3.33706 -1.75151,4.55014 -5.19738,4.89752 l -1.58756,0.16005 -0.18521,0.93147 c -0.10183,0.51231 -0.32125,2.06922 -0.48752,3.45978 -0.57385,4.79928 -2.42872,10.75503 -4.93171,15.83517 -5.30117,10.75937 -14.34248,19.76068 -25.18286,25.07142 -3.69106,1.80827 -6.11889,2.72953 -9.71465,3.68627 -2.62016,0.69714 -3.44487,0.7896 -3.67806,0.41229 z m 283.55184,-22.91576 0,-9.58094 1.56356,0 1.56356,0 0.16277,0.81382 0.16276,0.81382 1.09548,-0.88036 1.0955,-0.88035 1.81606,0 c 1.42581,0 1.97756,0.11965 2.56748,0.55674 1.81641,1.34587 2.65536,3.86697 2.4024,7.21942 -0.23469,3.11061 -1.69133,5.2338 -3.98312,5.80581 -1.15629,0.28859 -3.04623,-0.11123 -3.89273,-0.82351 -0.42436,-0.35706 -0.81417,-0.64928 -0.86623,-0.64935 -0.052,-8e-5 -0.053,1.6167 -0.002,3.59285 l 0.0926,3.59299 -1.88907,0 -1.88907,0 0,-9.58094 z m 7.31433,0.80011 c 1.04464,-0.39718 1.54058,-1.84926 1.42352,-4.16781 -0.12826,-2.53945 -0.7053,-3.38534 -2.38601,-3.49755 -0.98422,-0.0657 -1.28749,0.0362 -1.83185,0.61565 -0.54379,0.57885 -0.66879,1.02005 -0.75117,2.6514 -0.11955,2.36702 0.27921,3.73236 1.24281,4.25569 0.8514,0.46236 1.3762,0.49486 2.3027,0.14262 z m -359.429882,6.59376 c -0.582843,-0.2157 -0.72125,-1.72291 -0.24067,-2.62089 l 0.275502,-0.51479 7.808415,0 c 4.29463,0 8.187937,0.0759 8.651811,0.16868 0.599454,0.1199 1.076458,0.50742 1.649196,1.3399 0.443194,0.64415 0.765324,1.29265 0.715837,1.44113 -0.104542,0.31374 -18.036996,0.4906 -18.860091,0.18597 z m 167.772932,-3.76704 c -1.65565,-0.5427 -2.56046,-1.30279 -3.42285,-2.87537 l -0.77698,-1.4168 -0.008,-2.1291 c -0.01,-2.64631 0.57385,-4.27949 1.98488,-5.55426 2.61084,-2.35872 7.52974,-1.89702 9.55353,0.89672 1.61765,2.2331 1.71053,6.49309 0.19162,8.7883 -1.4039,2.12143 -4.84326,3.16872 -7.52235,2.29051 z m 3.72626,-3.10882 c 1.22952,-0.96715 1.59819,-4.18588 0.70372,-6.14407 -0.52154,-1.14178 -2.48427,-1.68979 -3.70748,-1.03514 -1.10742,0.59268 -1.66063,3.51873 -1.06841,5.65108 0.52668,1.89632 2.61012,2.67816 4.07217,1.52813 z m 39.05032,3.00791 c -1.37225,-0.69973 -1.96529,-1.68559 -2.07892,-3.45583 -0.18969,-2.95531 1.52784,-4.28889 5.84031,-4.53478 l 2.34084,-0.13347 0,-0.7615 c 0,-1.70003 -1.70479,-2.25205 -4.4155,-1.42972 -0.71854,0.21797 -1.33395,0.39762 -1.36757,0.39921 -0.0336,0.002 -0.31658,-0.49786 -0.6288,-1.10985 l -0.56767,-1.11271 0.46419,-0.33943 c 0.77124,-0.56395 3.32575,-0.96464 5.32975,-0.83605 2.20137,0.14127 3.34858,0.70702 4.19803,2.07023 l 0.58043,0.93148 0.0944,5.25621 0.0943,5.2562 -1.32617,0 -1.32617,0 -0.33072,-0.79841 c -0.18189,-0.43912 -0.38871,-0.79841 -0.45961,-0.79841 -0.0709,0 -0.47924,0.2948 -0.90745,0.65513 -1.45009,1.22015 -3.94058,1.55397 -5.53358,0.7417 z m 4.79619,-2.60719 c 0.86394,-0.44676 1.30604,-1.30416 1.30604,-2.53288 l 0,-0.78108 -1.1579,0 c -1.47152,0 -2.77134,0.44989 -3.10591,1.07502 -1.00879,1.88496 0.87899,3.31392 2.95777,2.23894 z m 95.20471,2.71966 c -2.90762,-0.824 -4.32608,-2.92794 -4.33691,-6.43283 -0.0141,-4.53133 2.21779,-7.04966 6.24761,-7.04966 3.75403,0 5.83676,2.10746 5.84917,5.91858 l 0.005,1.79642 -4.29146,0 -4.29146,0 0.17246,0.86495 c 0.0948,0.47572 0.53192,1.22423 0.97126,1.66335 l 0.79878,0.79841 1.78993,-0.0358 c 0.98445,-0.0197 2.2989,-0.2239 2.92099,-0.45393 l 1.13108,-0.41823 0,1.42591 0,1.42593 -0.86493,0.30369 c -1.37865,0.48406 -4.70435,0.58928 -6.10237,0.19312 z m 4.43502,-8.76153 c -0.47032,-1.6285 -1.78789,-2.47963 -3.23817,-2.09176 -0.75242,0.20125 -1.52087,1.08905 -1.81045,2.09176 l -0.17294,0.5988 2.69724,0 2.69725,0 -0.17293,-0.5988 z m 26.17076,8.76153 c -2.90764,-0.824 -4.32609,-2.92794 -4.33693,-6.43283 -0.0141,-4.53133 2.21781,-7.04966 6.24763,-7.04966 3.75402,0 5.83676,2.10746 5.84916,5.91858 l 0.005,1.79642 -4.29146,0 -4.29146,0 0.17245,0.86495 c 0.0949,0.47572 0.53193,1.22423 0.97127,1.66335 l 0.79879,0.79841 1.78993,-0.0358 c 0.98444,-0.0197 2.2989,-0.2239 2.92099,-0.45393 l 1.13108,-0.41823 0,1.42591 0,1.42593 -0.86495,0.30369 c -1.37864,0.48406 -4.70434,0.58928 -6.10236,0.19312 z m 4.435,-8.76153 c -0.4703,-1.6285 -1.78787,-2.47963 -3.23817,-2.09176 -0.75242,0.20125 -1.52086,1.08905 -1.81045,2.09176 l -0.17293,0.5988 2.69725,0 2.69725,0 -0.17295,-0.5988 z m 82.99626,8.87702 c -1.30253,-0.3362 -2.55967,-1.16926 -3.20128,-2.12132 -0.78987,-1.1721 -1.24608,-3.54342 -1.04741,-5.44429 0.41525,-3.97278 2.63188,-6.02979 6.50208,-6.03385 1.54444,-0.002 3.69981,0.45631 3.93444,0.83596 0.0815,0.13184 -0.0605,0.7859 -0.3154,1.45348 l -0.46356,1.2138 -0.68714,-0.16666 c -1.9106,-0.46334 -3.21601,-0.47144 -3.8987,-0.0243 -1.29151,0.84624 -1.80369,3.23812 -1.17673,5.4952 0.62489,2.24955 2.50696,2.62427 5.91858,1.17834 l 0.46573,-0.19738 0,1.48538 0,1.48542 -0.81837,0.42318 c -0.94816,0.49031 -3.9863,0.73329 -5.21224,0.41686 z m 12.6363,-0.11549 c -2.90763,-0.824 -4.32608,-2.92794 -4.33692,-6.43283 -0.0141,-4.53133 2.2178,-7.04966 6.24763,-7.04966 3.75402,0 5.83676,2.10746 5.84916,5.91858 l 0.005,1.79642 -4.29147,0 -4.29145,0 0.17245,0.86495 c 0.0948,0.47572 0.53193,1.22423 0.97127,1.66335 l 0.79879,0.79841 1.78993,-0.0358 c 0.98444,-0.0197 2.29888,-0.2239 2.92098,-0.45393 l 1.13109,-0.41823 0,1.42591 0,1.42593 -0.86495,0.30369 c -1.37864,0.48406 -4.70434,0.58928 -6.10236,0.19312 z m 4.43501,-8.76153 c -0.47032,-1.6285 -1.78788,-2.47963 -3.23817,-2.09176 -0.75242,0.20125 -1.52086,1.08905 -1.81045,2.09176 l -0.17293,0.5988 2.69725,0 2.69724,0 -0.17294,-0.5988 z m 23.50939,8.76153 c -2.90763,-0.824 -4.32609,-2.92794 -4.33692,-6.43283 -0.0141,-4.53133 2.21781,-7.04966 6.24762,-7.04966 3.75403,0 5.83676,2.10746 5.84917,5.91858 l 0.005,1.79642 -4.29145,0 -4.29147,0 0.17246,0.86495 c 0.0949,0.47572 0.53193,1.22423 0.97127,1.66335 l 0.79878,0.79841 1.78994,-0.0358 c 0.98444,-0.0197 2.29889,-0.2239 2.92099,-0.45393 l 1.13108,-0.41823 0,1.42591 0,1.42593 -0.86495,0.30369 c -1.37864,0.48406 -4.70435,0.58928 -6.10236,0.19312 z m 4.43502,-8.76153 c -0.47032,-1.6285 -1.78788,-2.47963 -3.23817,-2.09176 -0.75243,0.20125 -1.52087,1.08905 -1.81045,2.09176 l -0.17294,0.5988 2.69724,0 2.69725,0 -0.17293,-0.5988 z m -332.0021,0.0569 0,-8.79215 2.57062,0.0762 2.57062,0.0762 2.02024,6.56425 c 1.11114,3.61033 2.08013,6.50782 2.15332,6.43886 0.0732,-0.069 1.09266,-3.02289 2.26552,-6.56424 l 2.13244,-6.43887 2.45842,-0.0765 2.45842,-0.0765 0,8.7925 0,8.7925 -1.59683,0 -1.59682,0 -0.0157,-6.85302 -0.0157,-6.85303 -2.2556,6.85303 -2.25561,6.85302 -1.69936,0 -1.69936,0 -0.40884,-1.26414 c -0.22486,-0.69529 -1.13631,-3.65938 -2.02545,-6.5869 -0.88914,-2.92751 -1.66232,-5.4425 -1.7182,-5.58888 -0.0559,-0.14637 -0.033,2.81773 0.0507,6.5869 l 0.15222,6.85302 -1.7725,0 -1.77249,0 0,-8.79215 z m 37.79147,2.13874 0,-6.65344 1.86296,0 1.86296,0 0,2.52831 0,2.5283 2.52831,0 2.5283,0 0,-2.5283 0,-2.52831 1.86296,0 1.86296,0 0,6.65344 0,6.65342 -1.86296,0 -1.86296,0 0,-2.79443 0,-2.79444 -2.5283,0 -2.52831,0 0,2.79444 0,2.79443 -1.86296,0 -1.86296,0 0,-6.65342 z m 19.42802,1.33068 0,-5.32274 -2.26217,0 -2.26216,0 0,-1.33069 0,-1.33069 6.25422,0 6.25421,0 0,1.33069 0,1.33069 -2.26216,0 -2.26217,0 0,5.32274 0,5.32274 -1.72988,0 -1.72989,0 0,-5.32274 z m 26.11406,1.84676 2.68903,-3.476 -2.43514,-3.17744 -2.43514,-3.17744 1.86868,0 1.86864,0 2.33279,3.12712 2.33274,3.12711 0.075,-3.12711 0.075,-3.12712 1.58837,0 1.58837,0 0,3.06058 c 0,1.68332 0.0913,3.06058 0.20286,3.06058 0.11159,0 1.20241,-1.37726 2.42409,-3.06058 l 2.2212,-3.06058 1.86671,0 c 1.4505,0 1.81045,0.0742 1.61441,0.33268 -0.13876,0.18297 -1.22952,1.60771 -2.42389,3.16607 l -2.17162,2.83338 2.42732,3.15471 c 1.33505,1.73508 2.54558,3.30438 2.69007,3.48735 0.20532,0.25999 -0.16591,0.33018 -1.6994,0.32128 l -1.96206,-0.0115 -2.52831,-3.38186 -2.5283,-3.38186 -0.0745,3.39325 -0.0745,3.39325 -1.5809,0 -1.58091,0 -0.0745,-3.32573 -0.0745,-3.32573 -2.51917,3.32573 -2.5192,3.32573 -1.93612,0 -1.93613,0 2.68903,-3.47599 z m 26.84723,-3.17744 0,-6.65344 1.74202,0 1.74203,0 -0.0786,4.49941 c -0.0432,2.47467 -0.005,4.45377 0.0845,4.39804 0.0898,-0.0557 1.46704,-2.0802 3.06058,-4.49886 l 2.89739,-4.39751 2.19563,0 2.19563,0 0,6.65342 0,6.65343 -1.7474,0 -1.74744,0 0.0841,-4.4994 c 0.0463,-2.47467 0.005,-4.45045 -0.0912,-4.39062 -0.0964,0.0599 -1.46383,2.08458 -3.03881,4.49942 l -2.86355,4.3906 -2.21741,0 -2.21739,0 0,-6.65343 z m 17.56505,0 0,-6.65344 1.86296,0 1.86296,0 0,2.52831 0,2.5283 2.5283,0 2.52831,0 0,-2.5283 0,-2.52831 1.86296,0 1.86296,0 0,6.65344 0,6.65342 -1.86296,0 -1.86296,0 0,-2.79443 0,-2.79444 -2.52831,0 -2.5283,0 0,2.79444 0,2.79443 -1.86296,0 -1.86296,0 0,-6.65342 z m 17.06541,3.17744 2.68901,-3.476 -2.43512,-3.17744 -2.43516,-3.17744 1.86868,0 1.86866,0 2.33277,3.12712 2.33275,3.12711 0.075,-3.12711 0.075,-3.12712 1.58836,0 1.58839,0 0,3.06058 c 0,1.68332 0.0913,3.06058 0.20285,3.06058 0.11159,0 1.20241,-1.37726 2.42408,-3.06058 l 2.22121,-3.06058 1.86672,0 c 1.4505,0 1.81045,0.0742 1.61441,0.33268 -0.13877,0.18297 -1.22952,1.60771 -2.4239,3.16607 l -2.17163,2.83338 2.42734,3.15471 c 1.33505,1.73508 2.54557,3.30438 2.69005,3.48735 0.20533,0.25999 -0.1659,0.33018 -1.69938,0.32128 l -1.96208,-0.0115 -2.5283,-3.38186 -2.5283,-3.38186 -0.0745,3.39325 -0.0745,3.39325 -1.5809,0 -1.58092,0 -0.0745,-3.32573 -0.0745,-3.32573 -2.51919,3.32573 -2.51919,3.32573 -1.93613,0 -1.93612,0 2.68903,-3.47599 z m 34.83133,-3.17744 0,-6.65344 1.86296,0 1.86296,0 0,2.52831 0,2.5283 2.5283,0 2.52831,0 0,-2.5283 0,-2.52831 1.86296,0 1.86296,0 0,6.65344 0,6.65342 -1.86296,0 -1.86296,0 0,-2.79443 0,-2.79444 -2.52831,0 -2.5283,0 0,2.79444 0,2.79443 -1.86296,0 -1.86296,0 0,-6.65342 z m 46.30787,0 0,-6.65344 1.86296,0 1.86296,0 0,2.52831 0,2.5283 2.5283,0 2.5283,0 0,-2.5283 0,-2.52831 1.86297,0 1.86296,0 0,6.65344 0,6.65342 -1.86296,0 -1.86297,0 0,-2.79443 0,-2.79444 -2.5283,0 -2.5283,0 0,2.79444 0,2.79443 -1.86296,0 -1.86296,0 0,-6.65342 z m 16.23437,0.0239 0,-6.6773 1.86296,0 1.86296,0 0,2.48875 0,2.48878 2.28824,0.1615 c 4.00066,0.28231 5.66455,1.64198 5.3563,4.37692 -0.16606,1.4733 -0.84352,2.43318 -2.2059,3.12556 -0.88113,0.44778 -1.69162,0.54662 -5.10597,0.62268 l -4.05859,0.0905 0,-6.67733 z m 7.16286,3.71426 c 0.39707,-0.2125 0.55511,-0.55694 0.55511,-1.20983 0,-1.14998 -0.53823,-1.46376 -2.51082,-1.46376 l -1.48123,0 0,1.63406 0,1.63406 1.44091,-0.14872 c 0.79251,-0.0818 1.69072,-0.28243 1.99603,-0.44581 z m 6.14399,-3.73814 0,-6.65342 1.86296,0 1.86296,0 0,6.65342 0,6.65344 -1.86296,0 -1.86296,0 0,-6.65344 z m 5.85502,6.51252 c 0,-0.0775 0.96709,-1.58443 2.14911,-3.34875 1.18202,-1.76431 2.08542,-3.3738 2.00761,-3.57665 -0.0779,-0.20285 -0.98508,-1.62607 -2.01607,-3.16275 -1.03099,-1.53665 -1.87451,-2.85777 -1.87451,-2.93586 0,-0.078 0.88969,-0.14193 1.97712,-0.14193 l 1.97711,0 1.24348,1.99506 c 0.68391,1.09731 1.336,1.93791 1.44908,1.86802 0.11309,-0.0699 0.7135,-0.96767 1.33426,-1.99507 l 1.12869,-1.86801 1.96547,0 c 1.08102,0 1.9655,0.0639 1.9655,0.14193 0,0.0781 -0.84352,1.39921 -1.87451,2.93586 -1.03099,1.53668 -1.93822,2.9599 -2.01606,3.16275 -0.0778,0.20285 0.82558,1.81234 2.0076,3.57665 1.18202,1.76432 2.14912,3.27124 2.14912,3.34875 0,0.0774 -0.89018,0.14092 -1.97818,0.14092 l -1.97817,0 -1.3664,-2.26217 c -0.75151,-1.24419 -1.39975,-2.26216 -1.44047,-2.26216 -0.0407,0 -0.6961,1.01797 -1.45641,2.26216 l -1.38237,2.26217 -1.98552,0 c -1.092,0 -1.98548,-0.0634 -1.98548,-0.14092 z m 52.16288,-5.18183 0,-5.32274 -2.26217,0 -2.26216,0 0,-1.33069 0,-1.33068 6.25421,0 6.25423,0 0,1.33068 0,1.33069 -2.26216,0 -2.26217,0 0,5.32274 0,5.32275 -1.7299,0 -1.72988,0 0,-5.32275 z m 24.75075,-1.33069 0,-6.65342 1.74203,0 1.74203,0 -0.0786,4.49939 c -0.0432,2.47468 -0.005,4.45378 0.0845,4.39805 0.0898,-0.0557 1.46703,-2.08021 3.06057,-4.49886 l 2.89739,-4.39752 2.19563,0 2.19563,0 0,6.65344 0,6.65342 -1.7474,0 -1.74743,0 0.0841,-4.49939 c 0.0462,-2.47468 0.005,-4.45046 -0.0912,-4.39063 -0.0964,0.0599 -1.46384,2.08457 -3.03882,4.49943 l -2.86355,4.39059 -2.21739,0 -2.21741,0 0,-6.65342 z m -508.188885,-1.0321 -0.798411,-0.17073 0,-1.32807 0,-1.32808 19.694149,0 19.694147,0 0.08277,1.15075 c 0.0455,0.63293 -0.05893,1.32153 -0.232192,1.53029 -0.267714,0.32258 -3.115905,0.3748 -18.978531,0.34805 -10.264953,-0.0173 -19.022835,-0.10833 -19.461961,-0.20221 z m 512.111875,-7.58334 c -0.55029,-0.20474 -1.18693,-0.52692 -1.41475,-0.71601 -0.60413,-0.50138 -1.17755,-1.718 -1.17755,-2.49842 l 0,-0.67857 1.59682,0 c 1.35278,0 1.59682,0.0722 1.59682,0.47306 0,0.80008 0.7421,1.58636 1.65685,1.75549 1.4453,0.26723 2.40954,-0.13815 2.95595,-1.24273 l 0.48764,-0.98582 1.60377,0 1.60374,0 -0.18041,0.73188 c -0.30241,1.22681 -1.04712,2.28263 -2.0043,2.84165 -1.17705,0.68744 -5.2193,0.87948 -6.72458,0.31947 z M 37.176646,951.05922 c -0.151526,-0.28312 -0.275501,-0.77004 -0.275501,-1.08204 0,-0.31199 0.123975,-0.79891 0.275501,-1.08203 l 0.275502,-0.51478 13.13595,0 13.135951,0 0.161547,0.42097 c 0.270986,0.7062 0.180354,2.11512 -0.157821,2.4533 -0.239666,0.23966 -3.558253,0.31937 -13.297499,0.31937 l -12.978128,0 -0.275502,-0.51479 z M 8.2248681,939.32341 c -0.4940732,-0.1986 -0.5988091,-0.44597 -0.5988091,-1.41431 0,-0.69476 0.1557806,-1.30288 0.3818145,-1.49047 0.2908533,-0.24139 6.2212375,-0.29671 24.8935725,-0.2322 l 24.511753,0.0847 0.25232,0.39921 c 0.393771,0.62302 0.304223,2.04731 -0.157756,2.50929 l -0.418214,0.41822 -24.132937,-0.0169 C 19.23221,939.57122 8.5654119,939.46029 8.2248681,939.32341 Z M 291.86053,938.53686 c -8.97941,-1.44223 -14.84832,-7.50031 -16.37547,-16.90328 -0.96325,-5.93089 -0.19574,-11.79288 2.17632,-16.62207 1.69039,-3.44142 4.34109,-6.13269 7.56627,-7.68209 3.62509,-1.74154 5.04128,-2.02323 10.22574,-2.03401 l 4.52433,-0.01 1.98455,0.6232 c 5.7465,1.80453 9.31891,4.85615 11.73261,10.02229 1.2423,2.65889 1.83361,5.03359 2.09559,8.41603 0.95993,12.3923 -4.2501,21.14297 -14.08294,23.65352 -2.49144,0.63612 -7.51918,0.90971 -9.847,0.53583 z m 6.62099,-9.46647 c 3.75642,-1.11553 5.60679,-5.07025 5.61669,-12.00427 0.0108,-7.21431 -1.75509,-11.04449 -5.68048,-12.32422 -1.57654,-0.51397 -5.61946,-0.248 -6.9816,0.4593 -2.85038,1.48009 -4.2001,4.50101 -4.54748,10.17815 -0.26993,4.41101 0.62014,8.9306 2.21082,11.22592 1.7123,2.47083 5.77142,3.53737 9.38205,2.46512 z m 139.92632,9.43032 c -2.75742,-0.26536 -6.41138,-1.09009 -8.05935,-1.81908 l -1.16119,-0.51364 0,-4.53931 c 0,-2.49661 0.0675,-4.53929 0.14998,-4.53929 0.0824,0 1.55165,0.47703 3.26483,1.06005 4.27374,1.45443 7.64104,2.1247 10.69047,2.12794 3.97283,0.004 5.86632,-0.75887 6.36507,-2.5652 0.74454,-2.69649 -0.65116,-3.96824 -7.82884,-7.13362 -9.39551,-4.14345 -11.66263,-6.2559 -12.44033,-11.59168 -0.75546,-5.18323 1.23884,-9.33021 5.60642,-11.65811 4.52201,-2.41021 12.57831,-2.85576 19.57332,-1.08249 2.03523,0.51594 5.41277,1.72903 5.83135,2.09442 0.14998,0.13092 -2.71826,7.62443 -3.13655,8.19451 -0.0288,0.0393 -1.17222,-0.36101 -2.54087,-0.88958 -3.78702,-1.46255 -6.11429,-1.97631 -8.95239,-1.97631 -3.63821,0 -5.13855,0.82273 -5.13855,2.81777 0,1.80835 1.30585,2.70841 8.29706,5.71877 5.46508,2.35324 7.22304,3.34779 9.00435,5.09425 2.79447,2.73976 3.84289,7.12397 2.78095,11.62918 -1.74685,7.41091 -9.62565,10.79172 -22.30573,9.57142 z m 43.07541,0.0187 c -4.29771,-0.66955 -6.89145,-2.36846 -8.51878,-5.5798 -1.42876,-2.81952 -1.51799,-3.71258 -1.65473,-16.56231 l -0.12674,-11.90964 -2.63438,0 -2.63439,0 0.009,-2.46177 0.009,-2.46177 3.11793,-1.86296 3.11793,-1.86296 1.6377,-4.39126 1.63773,-4.39126 3.61201,-0.074 3.61205,-0.074 0.073,4.46527 0.073,4.46527 5.92155,0.0716 5.92155,0.0716 0,4.25311 0,4.2531 -5.98809,0 -5.98808,0 0.006,10.31282 c 0.003,5.67205 0.11529,10.78258 0.24847,11.35676 0.55479,2.39216 2.20032,3.44349 5.32612,3.40289 1.74938,-0.0227 4.37737,-0.45217 6.19562,-1.01247 l 0.46574,-0.14352 0,4.25442 0,4.25444 -1.66336,0.53505 c -0.91484,0.29428 -2.26216,0.65531 -2.99404,0.8023 -2.01888,0.40547 -6.98594,0.56895 -8.78252,0.28905 z m 29.66115,0.0149 c -4.4875,-0.71331 -7.85224,-3.3162 -9.29029,-7.18681 -1.9614,-5.27921 -0.92107,-11.75313 2.36588,-14.7227 3.35887,-3.03454 8.23509,-4.32557 17.58304,-4.65532 l 5.18968,-0.18306 -0.0432,-1.83011 c -0.0755,-3.19742 -1.31037,-5.20528 -3.72638,-6.0593 -2.47271,-0.87404 -8.16323,-0.0476 -12.75201,1.85213 l -1.88407,0.77997 -1.90565,-3.82207 -1.90568,-3.82206 1.34665,-0.68239 c 2.05712,-1.04243 5.6942,-2.15065 8.7171,-2.65612 3.40734,-0.56974 10.45562,-0.43726 12.95169,0.24345 4.16356,1.13547 7.37173,3.49026 8.91192,6.54136 1.54246,3.05558 1.59078,3.67449 1.59586,20.4333 l 0.004,15.23636 -3.95507,0 -3.95507,0 -1.13017,-2.93669 -1.13018,-2.93669 -2.21043,2.12207 c -2.43244,2.33526 -4.05827,3.29355 -6.57899,3.87782 -2.15475,0.49943 -6.31735,0.70599 -8.19923,0.40686 z m 10.30366,-8.64884 c 2.04017,-0.60586 3.63846,-1.97354 4.60816,-3.9433 l 0.82764,-1.68114 0.16319,-2.88157 0.16317,-2.88158 -3.96773,0.14233 c -5.13277,0.1841 -7.12518,0.75502 -8.92659,2.55782 -1.01975,1.02057 -1.28855,1.50322 -1.5549,2.79187 -0.55482,2.68439 0.24764,4.7718 2.20734,5.74183 1.36542,0.67588 4.47321,0.74962 6.47972,0.15374 z m -326.72758,-19.4517 0,-27.56717 11.51043,0.10714 11.51043,0.10714 2.59184,0.69719 c 8.7447,2.35223 12.82884,8.13528 12.35608,17.496 -0.17805,3.52571 -0.58851,5.23258 -1.89375,7.87515 -1.60309,3.2456 -4.58068,5.8531 -8.43111,7.38317 -3.28996,1.30735 -4.83246,1.55602 -10.54461,1.69992 l -5.38927,0.13575 0,9.81647 0,9.81646 -5.85503,0 -5.85501,0 0,-27.56717 z m 21.19302,-2.42746 c 2.86022,-1.12276 4.40926,-2.97676 4.92276,-5.8919 0.56836,-3.22662 -0.51342,-6.58458 -2.57669,-7.99835 -1.7484,-1.19802 -2.94452,-1.44772 -7.50433,-1.56656 l -4.32472,-0.11272 0,8.17689 0,8.1769 4.05858,-0.12406 c 3.22783,-0.0987 4.33817,-0.23381 5.4244,-0.6602 z m 26.71166,8.96979 0,-21.02484 4.33953,0 4.33952,0 0.78416,3.39325 c 0.43727,1.89215 0.91773,3.39325 1.0861,3.39325 0.16607,0 0.8743,-0.76142 1.57387,-1.69205 3.0926,-4.11406 7.07247,-6.01879 12.22354,-5.85006 1.51591,0.0496 2.8042,0.15016 2.86289,0.22334 0.0587,0.0732 -0.0817,2.46842 -0.31203,5.32275 l -0.41872,5.18967 -2.39434,-0.0889 c -5.75594,-0.21381 -9.88005,1.8521 -11.7412,5.8816 l -0.76635,1.65918 -0.0789,12.30884 -0.0789,12.30885 -5.70957,0 -5.70957,0 0,-21.02484 z m 84.56708,4.32473 -0.0686,-16.70011 -3.1271,-0.075 -3.12712,-0.075 0,-2.76889 0,-2.76889 3.12712,-1.5474 3.1271,-1.54739 0.15727,-3.72592 c 0.21889,-5.18604 1.27155,-8.0207 3.75996,-10.12506 2.93006,-2.47786 8.78028,-3.55036 15.11855,-2.77167 2.56251,0.31482 6.38033,1.26946 6.38033,1.59538 0,0.22034 -2.68326,8.03031 -2.8172,8.19983 -0.04,0.0507 -0.94952,-0.10823 -2.02105,-0.35314 -2.88506,-0.65937 -5.7216,-0.65662 -6.87616,0.006 -1.45814,0.83773 -2.12472,2.43811 -2.12472,5.10119 l 0,2.20577 4.92352,0 4.92354,0 0,4.2582 0,4.25819 -4.92354,0 -4.92352,0 0,16.76664 0,16.76664 -5.71996,0 -5.71995,0 -0.0686,-16.7001 z m 29.07349,-10.84509 0,-27.5452 5.85502,0 5.85501,0 0,27.5452 0,27.5452 -5.85501,0 -5.85502,0 0,-27.5452 z m 24.75075,6.52036 0,-21.02484 4.34576,0 4.34575,0 0.74326,2.66137 c 0.40882,1.46376 0.84768,2.66138 0.97529,2.66138 0.12762,0 1.04116,-0.82012 2.03015,-1.82247 2.85685,-2.89551 6.57029,-4.29869 11.3763,-4.29869 7.69732,0 12.65176,3.4857 14.41361,10.14066 l 0.45071,1.70245 0.10487,15.50249 0.10487,15.50249 -5.73925,0 -5.73925,0 -0.002,-12.84112 c 0,-7.34392 -0.11742,-13.58168 -0.27159,-14.57102 -0.4031,-2.58638 -1.45149,-4.46713 -3.03631,-5.44694 l -1.30575,-0.80727 -2.4161,0.0108 c -4.63488,0.0205 -6.92382,1.84974 -8.31215,6.64275 l -0.46252,1.59682 -0.0972,12.70806 -0.0973,12.70804 -5.7056,0 -5.70561,0 0,-21.02483 z m 169.52936,-8.25026 0,-29.27508 5.72195,0 5.72195,0 0,29.27508 0,29.2751 -5.72195,0 -5.72195,0 0,-29.2751 z m 23.42007,0 0,-29.27508 5.72195,0 5.72195,0 0,29.27508 0,29.2751 -5.72195,0 -5.72195,0 0,-29.2751 z M 84.151018,926.09143 c -6.58111,-0.0396 -12.060553,-0.16704 -12.176546,-0.28303 -0.227078,-0.22708 1.835325,-5.49664 3.241572,-8.28239 3.746212,-7.42121 11.302065,-17.93596 18.950501,-26.37159 0.998588,-1.10137 2.085413,-2.37229 2.415149,-2.82425 0.329735,-0.45196 2.235357,-2.72452 4.234706,-5.05013 3.7074,-4.31238 4.42925,-5.21335 8.29203,-10.34953 3.78412,-5.03161 7.26526,-10.58643 9.78708,-15.61714 2.83174,-5.64896 5.61395,-13.03442 6.37333,-16.91813 0.17888,-0.91485 0.42398,-1.66336 0.54468,-1.66336 0.24717,0 0.35497,0.59841 0.79105,4.39126 0.65396,5.68788 2.09129,11.47855 4.38945,17.684 1.14185,3.08319 5.18438,11.34157 6.95217,14.20239 1.50533,2.43606 8.71735,13.32861 12.36794,18.67967 7.54825,11.06429 11.71426,19.66145 13.91678,28.71929 0.38838,1.5972 0.64419,3.06545 0.56846,3.26279 -0.11334,0.29534 -2.36321,0.34657 -12.72002,0.28966 l -12.58233,-0.0691 -0.76359,-1.46376 c -1.32932,-2.54822 -2.85236,-5.05815 -5.89452,-9.714 -4.97468,-7.61351 -6.31546,-10.0364 -8.24746,-14.90369 -0.96578,-2.43306 -2.18807,-7.70747 -2.39312,-10.32664 -0.1236,-1.57896 -0.283,-2.30932 -0.48899,-2.24066 -0.16809,0.056 -0.56662,1.11017 -0.88563,2.34253 -1.95554,7.55456 -7.15178,16.24257 -14.86996,24.86232 -0.3932,0.43912 -1.03085,1.21673 -1.417,1.72801 -0.38616,0.51128 -1.40209,1.76879 -2.25763,2.79445 -0.85553,1.02566 -2.22241,2.82293 -3.037509,3.99393 -1.798047,2.58315 -2.46236,3.34675 -2.838668,3.26299 -0.157452,-0.0351 -5.670825,-0.0962 -12.251925,-0.13584 z m -67.4217,-11.03007 c -0.434986,-0.43499 -0.406889,-2.2067 0.04089,-2.57832 0.263937,-0.21905 7.003567,-0.28176 24.950358,-0.23219 l 24.58874,0.0679 0,1.46376 0,1.46375 -24.629627,0.0679 c -18.935833,0.0522 -24.703768,-0.006 -24.950357,-0.25283 z M 37.69297,904.84961 c -0.348224,-0.91589 -0.326842,-1.51927 0.07313,-2.06346 l 0.332672,-0.45264 19.428012,0.0691 19.428014,0.0691 0.08277,1.15074 c 0.0455,0.63292 -0.05893,1.32156 -0.232192,1.53029 -0.267433,0.32224 -3.224466,0.37954 -19.583935,0.37954 l -19.268942,0 -0.25955,-0.68267 z m 22.187529,-9.0828 c -1.119239,-0.21859 -1.122467,-2.87848 -0.0043,-3.14961 0.317678,-0.077 6.62557,-0.10682 14.017526,-0.0663 11.362666,0.0623 13.439933,0.1318 13.439933,0.44953 0,0.53358 -1.4809,2.31908 -2.208155,2.66234 -0.588014,0.27754 -23.865839,0.37344 -25.245479,0.104 z M 43.130852,886.0646 c -0.271954,-0.44003 -0.294164,-1.61261 -0.04083,-2.15596 l 0.217146,-0.46575 26.072076,0 c 14.339645,0 26.072075,0.0948 26.072075,0.21077 0,0.11593 -0.510371,0.77462 -1.134145,1.46376 l -1.134157,1.25299 -24.931581,0 c -18.490026,0 -24.980414,-0.079 -25.120581,-0.30581 z"
       style="fill:#000000" />
  </g>
</svg>
