<?xml version="1.0" encoding="UTF-8" standalone="no"?>
<svg
   xmlns:dc="http://purl.org/dc/elements/1.1/"
   xmlns:cc="http://creativecommons.org/ns#"
   xmlns:rdf="http://www.w3.org/1999/02/22-rdf-syntax-ns#"
   xmlns:svg="http://www.w3.org/2000/svg"
   xmlns="http://www.w3.org/2000/svg"
   version="1.1"
   id="svg2"
   viewBox="0 0 600.00001 280"
   height="280"
   width="600">
  <defs
     id="defs4" />
  <metadata
     id="metadata7">
    <rdf:RDF>
      <cc:Work
         rdf:about="">
        <dc:format>image/svg+xml</dc:format>
        <dc:type
           rdf:resource="http://purl.org/dc/dcmitype/StillImage" />
        <dc:title></dc:title>
      </cc:Work>
    </rdf:RDF>
  </metadata>
  <g
     transform="translate(0,-772.36216)"
     id="layer1">
    <path
       id="path4837"
       d="m 47.168464,975.24677 c -11.130752,-3.51341 -21.701923,-13.47304 -25.73143,-24.24286 -2.207412,-5.89984 -2.407973,-9.0345 -2.407973,-37.63523 0,-29.04012 0.175194,-31.67985 2.531447,-38.14208 3.273615,-8.97821 10.891024,-17.4404 19.508317,-21.67183 6.685876,-3.28303 6.685876,-3.28303 44.791312,-3.28303 38.105443,0 38.105443,0 44.727533,3.10467 8.38118,3.92938 15.05622,10.57895 19.01077,18.93816 3.09278,6.5376 3.09278,6.5376 3.09278,39.98176 0,30.75621 -0.19161,33.95629 -2.38405,39.81611 -3.17306,8.48076 -10.09682,16.09883 -18.38968,20.2338 -6.77944,3.38034 -6.77944,3.38034 -44.29864,3.60305 -20.635563,0.12249 -38.838233,-0.19364 -40.450386,-0.70252 z m 78.796506,-6.61868 c 7.48537,-2.55052 14.28596,-8.7967 18.15434,-16.67432 3.29577,-6.71154 3.29577,-6.71154 3.29577,-38.95461 0,-32.24307 0,-32.24307 -3.2529,-38.86699 -3.62012,-7.3717 -10.37596,-13.54986 -18.16849,-16.61495 -4.28491,-1.68541 -9.95982,-1.96934 -39.362182,-1.96934 -40.39041,0 -42.332106,0.37118 -51.878079,9.91716 -9.61823,9.61822 -10.101446,12.12824 -9.653014,50.14182 0.355799,30.16122 0.521431,32.24709 2.911855,36.67022 4.458425,8.24966 11.923715,14.52351 20.321078,17.07787 1.616329,0.49167 18.541298,0.93928 37.611043,0.99472 28.476919,0.0828 35.627929,-0.22485 40.020579,-1.72158 z M 65.92806,949.03745 c 0,-6.73328 -0.723685,-11.79791 -2.344948,-16.41068 -2.590686,-7.37098 -3.158606,-20.81673 -1.110557,-26.29301 0.67891,-1.81535 4.137006,-5.99672 7.684634,-9.29193 5.751518,-5.34226 6.364289,-6.35834 5.656642,-9.3798 -0.436489,-1.86368 -3.103155,-6.37774 -5.925924,-10.03123 -7.817253,-10.11779 -6.137717,-12.50094 3.581583,-5.08203 2.956854,2.25701 5.799918,4.10366 6.317929,4.10366 0.518012,0 2.096456,-1.56171 3.507671,-3.47048 5.312074,-7.18496 19.72835,-7.77963 25.3931,-1.04745 2.99616,3.56073 2.99616,3.56073 2.68816,44.78285 l -0.308,41.2221 -22.570144,0.31844 -22.570146,0.31844 z m 42.0589,7.46094 c 0.88467,-0.56041 1.41228,-1.53731 1.17247,-2.1709 -0.23981,-0.63359 -6.35367,-6.30396 -13.586357,-12.60085 -18.527088,-16.12996 -19.225872,-19.41832 -8.651869,-40.71463 6.665849,-13.42522 7.843002,-20.10782 3.427555,-19.4581 -3.426066,0.50412 -4.171866,3.3016 -1.094717,4.1063 3.103202,0.8115 3.085298,1.10069 -0.346642,5.60019 -2.935198,3.84826 -8.554531,6.71112 -16.530727,8.42187 l -4.6899,1.0059 -0.315818,26.94156 c -0.173691,14.81786 -0.05839,27.61249 0.256326,28.43252 0.673024,1.75388 37.648669,2.15345 40.359679,0.43614 z m 83.68633,16.47325 c -8.68755,-3.05098 -15.8444,-9.41434 -20.63775,-18.34961 -2.42278,-4.51629 -2.51591,-6.07882 -2.51591,-42.20911 0,-37.5192 0,-37.5192 3.48354,-43.80862 4.15565,-7.50291 11.19566,-13.57202 19.32724,-16.66177 5.44529,-2.06904 9.28354,-2.25608 46.08472,-2.24557 40.14469,0.0117 40.14469,0.0117 46.5933,3.00017 10.18657,4.72114 18.14123,14.02928 21.29937,24.92341 0.24783,0.8549 1.40503,-1.09984 2.57156,-4.34386 3.07587,-8.55369 10.39355,-16.29088 19.17222,-20.27131 7.3218,-3.31987 7.3218,-3.31987 47.7645,-3.31987 39.94089,0 40.52027,0.0344 46.69448,2.76484 8.97982,3.9713 14.39716,9.26625 18.80622,18.38133 l 3.86226,7.98468 1.4754,-4.99686 c 2.2485,-7.6152 11.00687,-16.85016 19.73296,-20.80676 4.03592,-1.82998 8.66231,-3.32723 10.28088,-3.32723 2.94283,0 2.94283,0 3.25004,44.26094 l 0.30722,44.26094 51.44687,0.30555 51.44686,0.30555 -0.58132,5.15753 c -1.26653,11.23662 -10.06889,23.1613 -20.74117,28.09836 -5.14362,2.37948 -7.06693,2.47973 -47.56946,2.47973 -42.2091,0 -42.2091,0 -48.90914,-3.29014 -8.03266,-3.94454 -15.44392,-11.95697 -18.1766,-19.65104 l -1.97847,-5.5705 -3.8543,7.96822 c -4.23403,8.75324 -9.71769,14.29389 -17.88874,18.07463 -5.03775,2.33096 -7.55027,2.48846 -44.99228,2.82028 -43.87651,0.38886 -47.57007,-0.0512 -56.85004,-6.77361 -6.15308,-4.45727 -11.56572,-11.84567 -13.25058,-18.0874 l -1.29632,-4.80231 -2.25299,6.03056 c -2.91823,7.81126 -10.30011,16.1213 -17.86609,20.1125 -6.007,3.16881 -6.007,3.16881 -47.04363,3.45893 -37.3314,0.26393 -41.59266,0.0949 -47.19485,-1.87258 z m 76.50673,-40.62664 0,-5.86238 -26.38069,-0.58623 -26.38069,-0.58624 0,-13.48346 0,-13.48347 44.84717,-0.30705 44.84718,-0.30706 0,-5.26219 0,-5.26221 -50.41643,0 -50.41644,0 0,25.81329 0,25.8133 31.94995,-0.31196 31.94995,-0.31196 z m 175.28503,-0.0124 0,-6.46107 -50.70955,0.30558 -50.70955,0.30557 -0.37124,4.52008 c -0.68599,8.35215 -4.38422,7.79091 51.33712,7.79091 l 50.45322,0 z m 0,-39.86415 0,-5.2886 -50.70955,0.30558 c -50.70955,0.30557 -50.70955,0.30557 -51.0901,3.62891 -0.80183,7.00231 -3.5815,6.6427 51.34643,6.6427 l 50.45322,0 z"
       style="fill:#000000" />
  </g>
</svg>
