<?xml version="1.0" encoding="UTF-8" standalone="no"?>
<svg
   xmlns:dc="http://purl.org/dc/elements/1.1/"
   xmlns:cc="http://creativecommons.org/ns#"
   xmlns:rdf="http://www.w3.org/1999/02/22-rdf-syntax-ns#"
   xmlns:svg="http://www.w3.org/2000/svg"
   xmlns="http://www.w3.org/2000/svg"
   version="1.1"
   id="svg2"
   viewBox="0 0 600.00001 280"
   height="280"
   width="600">
  <defs
     id="defs4" />
  <metadata
     id="metadata7">
    <rdf:RDF>
      <cc:Work
         rdf:about="">
        <dc:format>image/svg+xml</dc:format>
        <dc:type
           rdf:resource="http://purl.org/dc/dcmitype/StillImage" />
        <dc:title></dc:title>
      </cc:Work>
    </rdf:RDF>
  </metadata>
  <g
     transform="translate(0,-772.36216)"
     id="layer1">
    <path
       id="path4354"
       d="m 9.3371814,915.52622 0,-85.94142 290.0645186,0 290.06452,0 0,85.94142 0,85.94148 -290.06452,0 -290.0645186,0 z M 60.882431,976.8551 c 5.228022,-4.7973 9.656895,-8.87296 9.841941,-9.057 0.317789,-0.3161 0.07064,-1.23679 -4.456442,-16.60178 -2.636089,-8.94693 -4.862263,-16.42843 -4.947052,-16.62556 -0.138549,-0.32211 -7.551499,13.81385 -25.188614,48.03287 l -1.540504,2.98884 8.392591,-0.007 8.392587,-0.007 9.505493,-8.72236 z m 150.220529,8.36799 c -0.74081,-0.70795 -37.99856,-31.22794 -38.23078,-31.31705 -0.12868,-0.0494 -20.08118,5.0465 -44.33886,11.32419 l -44.10489,11.41397 -3.394445,4.20583 c -1.866946,2.31321 -3.464976,4.32657 -3.551179,4.47414 -0.132521,0.22686 10.204688,0.2683 66.924974,0.2683 65.72052,0 67.07387,-0.007 66.69518,-0.36938 z m 59.29229,-24.99983 0,-25.36921 19.05998,-0.0744 c 21.02829,-0.0821 20.12801,-0.0292 22.71234,-1.33379 2.07493,-1.04742 3.31476,-2.54627 4.35838,-5.26888 l 0.41681,-1.08737 0.0548,-36.35606 c 0.0487,-32.26913 0.0206,-36.51124 -0.24935,-37.73647 -0.66726,-3.02814 -2.21483,-5.15114 -4.61366,-6.3292 -2.55326,-1.25391 -1.08173,-1.20076 -33.3608,-1.20451 l -29.34944,-0.003 0,70.06626 0,70.06626 10.48545,0 10.48544,0 0,-25.36921 z m 0,-70.17569 0,-26.75257 12.83731,0 12.83732,0 0,26.75257 0,26.75258 -12.83732,0 -12.83731,0 z m 119.74961,86.2354 0,-9.3095 -18.619,0 -18.61902,0 0,-21.95083 0,-21.95083 15.87516,0 15.87515,0 0,-9.1135 0,-9.11352 -15.87515,0 -15.87516,0 0,-20.48091 0,-20.48091 18.32503,0 18.32502,0 0,-9.2115 0,-9.21152 -28.81047,0 -28.81046,0 0,69.9356 c 0,38.46458 0.0588,69.9944 0.13067,70.06627 0.0719,0.0719 13.16885,0.13065 29.10444,0.13065 l 28.97379,0 z m 34.44298,-28.17349 c -0.0625,-37.33285 -0.0644,-37.49831 -0.50104,-41.30282 -0.24108,-2.10091 -0.41391,-3.93643 -0.38404,-4.07895 0.0298,-0.14253 4.07647,15.51124 8.99244,34.78617 l 8.93812,35.04529 5.3691,0.0503 5.36912,0.0503 8.91752,-35.16489 c 4.90464,-19.34069 8.94851,-35.13398 8.9864,-35.09622 0.0379,0.0378 -0.0741,1.3753 -0.24885,2.9723 -0.17475,1.597 -0.40343,3.91788 -0.50816,5.1575 -0.11445,1.35413 -0.19113,16.78767 -0.19213,38.66073 l -0.002,36.40683 10.04447,-0.0507 10.04446,-0.0507 0.0493,-70.01906 0.0493,-70.01906 -9.93976,0.0507 -9.9395,0.0508 -11.03687,38.51194 c -9.77682,34.11503 -11.06753,38.77629 -11.30521,40.82732 -0.14758,1.27345 -0.30809,2.35514 -0.3567,2.40375 -0.0486,0.0486 -0.14112,-0.77694 -0.20554,-1.83457 -0.10881,-1.78613 -0.9098,-4.69749 -11.25678,-40.9157 l -11.13964,-38.99274 -9.93986,-0.0508 -9.93987,-0.0507 0,70.06806 0,70.06805 10.09922,0 10.09923,0 -0.0628,-37.483 z m 102.35771,12.10235 0,-25.38064 17.59007,-0.005 c 17.2558,-0.005 20.49696,-0.10005 22.36979,-0.65621 2.52268,-0.74916 4.51689,-2.36725 5.51278,-4.47306 1.25446,-2.65252 1.18954,-0.34034 1.12947,-40.23725 l -0.0546,-36.25806 -0.44824,-1.321 c -0.96722,-2.85039 -3.02396,-4.90713 -5.87436,-5.87434 l -1.32099,-0.44826 -29.93739,-0.0526 -29.93741,-0.0526 0,70.0699 0,70.06992 10.48544,0 10.48544,0 0,-25.38064 z m 0,-70.16567 0,-26.754 12.78832,0.0504 12.78832,0.0504 0.0497,26.70357 0.0496,26.70358 -12.83801,0 -12.83802,0 0,-26.75399 z m -293.20034,62.12739 0,-22.63952 -6.31428,0.0518 -6.31425,0.0518 -1.8165,3.24306 -1.81647,3.24306 4.89502,17.23785 c 2.69225,9.48081 4.97116,17.37013 5.06424,17.53182 0.12941,0.22482 6.02128,3.91775 6.25324,3.91944 0.0269,2e-4 0.049,-10.18742 0.049,-22.63915 z m -18.08771,11.61509 c -2.34403,-5.82469 -5.71359,-13.86626 -5.81019,-13.86626 -0.15638,0 -4.42259,7.60312 -4.42259,7.8818 0,0.18276 9.79853,6.17069 10.16342,6.21093 0.0924,0.0104 0.12359,-0.0918 0.0694,-0.22647 z M 47.366574,929.91771 c 0.198758,-0.37138 0.0086,-0.37811 -10.681959,-0.37811 l -10.884312,0 0.002,16.41412 0.002,16.41412 10.680242,-16.036 c 5.874133,-8.81981 10.771303,-16.20616 10.882601,-16.41413 z m 84.982876,25.29754 c 18.98764,-3.23439 34.58351,-5.88071 34.65748,-5.88071 0.0739,0 0.10509,-0.0778 0.0692,-0.17282 -0.0359,-0.0951 -3.62242,-3.0937 -7.96998,-6.66364 -5.59094,-4.59094 -8.04465,-6.49082 -8.38292,-6.49082 -1.31155,0 -37.63032,5.13258 -37.82685,5.34571 -0.40651,0.44084 -15.678847,19.44317 -15.832898,19.6998 -0.112167,0.18686 -0.03242,0.2255 0.305616,0.14802 0.251573,-0.0576 15.992742,-2.75114 34.980392,-5.98554 z m -36.32739,-11.1298 c -0.07105,-0.85513 -1.862856,-12.09265 -1.941669,-12.17765 -0.04165,-0.0448 -0.10354,-0.0448 -0.137536,0 -0.140687,0.18587 -10.32618,23.80892 -10.325921,23.94874 1.56e-4,0.0838 2.800485,-2.42082 6.222952,-5.56578 5.210423,-4.78794 6.216083,-5.79737 6.182174,-6.20531 z m 107.41956,3.66804 c 1.36018,-3.94172 2.47307,-7.29878 2.47307,-7.46014 0,-0.16135 -0.95587,-2.62492 -2.12414,-5.47457 l -2.12413,-5.18119 -8.06732,-0.0512 c -6.39596,-0.0406 -8.06342,4e-5 -8.04848,0.19599 0.0104,0.13594 1.92861,5.00971 4.26277,10.8306 l 4.24392,10.58343 3.32438,2.00655 c 1.82841,1.1036 3.38343,1.94145 3.45561,1.8619 0.0722,-0.0795 1.24414,-3.36969 2.60432,-7.3114 z m -121.214132,-9.29637 4.915676,-8.81953 -6.594738,-0.0517 c -3.627106,-0.0284 -6.638148,-0.008 -6.691205,0.0448 -0.09181,0.0918 2.610117,17.42749 2.839887,18.22088 0.101769,0.35141 0.128154,0.34427 0.362233,-0.098 0.13886,-0.26234 2.464526,-4.44579 5.168147,-9.29653 z M 184.00528,943.698 c -0.61566,-1.1598 -2.22181,-4.20074 -3.56923,-6.75764 -1.34743,-2.5569 -2.50357,-4.6507 -2.56919,-4.65291 -0.20811,-0.007 -2.17129,7.87748 -2.00224,8.0413 0.2343,0.22705 8.95486,5.45449 9.12061,5.46725 0.0766,0.006 -0.3643,-0.93819 -0.97995,-2.098 z m -78.19225,-8.05728 2.89085,-2.64769 0,-1.72672 0,-1.72671 -0.95117,0 -0.95116,0 -2.62565,4.83785 c -1.4441,2.66082 -2.66238,4.93183 -2.7073,5.0467 -0.0995,0.25461 0.6142,-0.36697 4.34443,-3.78343 z m 67.06919,-1.61759 c 0.16621,-1.79192 0.30221,-3.53379 0.30221,-3.87079 l 0,-0.61274 -2.64586,0 c -1.45522,0 -2.64585,0.0517 -2.64585,0.11482 0,0.25456 4.58455,7.98257 4.63398,7.81135 0.0293,-0.1015 0.1893,-1.65071 0.35552,-3.44264 z m -38.79769,0.1106 c 7.43779,-0.3779 13.60442,-0.71129 13.7036,-0.74084 0.0992,-0.0295 -0.86812,-0.90862 -2.14958,-1.95351 l -2.32991,-1.89978 -10.43836,0 -10.43835,0 -2.01329,2.47157 c -1.1073,1.35936 -2.08554,2.59717 -2.17385,2.7507 -0.13433,0.23353 0.0417,0.26114 1.07794,0.16905 0.68119,-0.0606 7.32399,-0.41929 14.7618,-0.79719 z m 29.09481,-2.29126 c -0.6576,-0.88929 -1.31,-1.77471 -1.44979,-1.96758 -0.2185,-0.30146 -0.51075,-0.34271 -2.08266,-0.29398 l -1.8285,0.0566 3.12626,1.89414 c 1.71945,1.04176 3.19468,1.90167 3.2783,1.9109 0.0836,0.009 -0.38602,-0.71085 -1.04361,-1.60016 z m -61.05082,-1.7639 0.34877,-0.53897 -1.10048,0 -1.10048,0 0.002,0.73496 c 0.001,0.40423 0.0573,1.0687 0.12473,1.47662 l 0.12256,0.74164 0.62699,-0.93764 c 0.34485,-0.5157 0.78393,-1.18018 0.97576,-1.47661 z m 10.09232,-0.405 c 0.006,-0.088 -0.23169,-0.1321 -0.52812,-0.098 -0.43076,0.0496 -0.55197,0.17585 -0.60369,0.62891 l -0.0647,0.5669 0.59284,-0.46891 c 0.32606,-0.25788 0.59772,-0.54089 0.60368,-0.6289 z m -62.557548,-3.17589 0.834218,-1.26985 -12.348604,0 -12.348603,0 0,1.27393 0,1.27393 11.514386,-0.004 11.514386,-0.004 0.834217,-1.26985 z m 39.175248,0.10212 c 0.353709,-0.59287 0.646539,-1.14409 0.650735,-1.22494 0.0041,-0.0809 -3.70358,-0.14698 -8.239504,-0.14698 l -8.247133,0 0.106865,0.53897 c 0.05878,0.29643 0.163991,0.87075 0.233812,1.27626 l 0.126947,0.73729 7.362589,-0.0514 7.362585,-0.0514 0.643104,-1.07795 z m 15.54627,0.0108 c 0.43519,-0.64085 0.79125,-1.21412 0.79125,-1.27394 0,-0.0599 -1.10244,-0.10873 -2.44987,-0.10873 l -2.44986,0 0,1.27392 0,1.27393 1.65861,0 1.65861,0 z m 4.24272,0.88546 c 0.059,-0.15385 0.0758,-0.48459 0.0372,-0.73497 -0.0666,-0.43249 -0.087,-0.4239 -0.40748,0.17201 -0.18556,0.34497 -0.33737,0.67571 -0.33737,0.73496 0,0.23692 0.60735,0.0893 0.70761,-0.172 z m 7.18276,-1.00072 1.32471,-1.26741 -2.72278,0 c -3.07705,0 -2.95608,-0.07 -2.96182,1.71491 l -0.003,0.83294 1.51891,-0.006 1.51891,-0.006 1.32472,-1.26742 z m 25.02887,1.01563 c -0.15784,-0.14565 -0.84278,-0.71892 -1.52209,-1.27394 l -1.23511,-1.0091 -6.1145,10e-4 -6.1145,10e-4 -0.93095,1.16751 c -0.51202,0.64212 -0.93095,1.21467 -0.93095,1.27233 0,0.0576 3.8554,0.10481 8.56754,0.10481 7.20719,0 8.52198,-0.0421 8.28056,-0.26482 z m 14.9898,0.0199 c 0.0414,-0.13475 0.12268,-0.70801 0.1806,-1.27393 l 0.10531,-1.02894 -1.96007,0 -1.96007,0 0.61698,0.89674 c 0.33934,0.49322 0.89478,1.06616 1.23434,1.27321 0.70039,0.42706 1.67028,0.49937 1.78291,0.13292 z m 4.22418,0.13862 c 0,-0.0585 -0.36453,-0.59981 -0.81007,-1.20292 -0.89679,-1.21392 -1.01063,-1.17906 -1.23545,0.37833 l -0.13439,0.93096 1.08995,0 c 0.59948,0 1.08996,-0.0478 1.08996,-0.10637 z m 13.52327,-1.2166 0.098,-1.22496 -4.16477,3e-5 c -2.29063,2e-5 -4.16478,0.0394 -4.16478,0.0875 0,0.0482 0.31412,0.62346 0.69803,1.27852 l 0.69804,1.19101 3.36875,-0.0535 3.36874,-0.0535 z m 27.12938,0.88198 c -0.0768,-0.24253 -0.30007,-0.8158 -0.49621,-1.27393 l -0.35664,-0.83295 -8.05574,0 -8.05575,0 0.13958,0.44097 c 0.0768,0.24254 0.30007,0.81582 0.49622,1.27394 l 0.35664,0.83296 8.05574,0 8.05574,0 z m 33.03942,-0.83621 0,-1.27719 -5.10285,0.0523 -5.10285,0.0523 -0.69019,1.22493 -0.69019,1.22494 5.79303,0 5.79305,0 0,-1.27719 z M 53.965,920.02478 l 2.157772,-3.24333 -0.766887,-2.58737 c -0.421789,-1.42309 -0.985314,-3.31501 -1.252277,-4.20432 l -0.48539,-1.61691 -13.908955,0 -13.90896,0 0,7.4476 0,7.4476 13.003462,0 13.003463,0 z m 37.056333,2.60635 c 0.209252,-0.35034 0.582599,-1.0067 0.829655,-1.45858 l 0.449196,-0.82161 -0.947576,-5.98903 -0.947578,-5.98902 -7.950663,0.004 -7.950662,0.004 -1.586761,3.09509 -1.586759,3.09507 0.694122,4.34833 0.694123,4.34832 8.961222,0 8.96122,0 0.380461,-0.63697 z m 16.500637,-0.82411 0.98592,-1.46107 0,-5.98654 0,-5.98652 -2.20488,0.005 -2.20489,0.004 -2.0089,4.68121 -2.00888,4.68121 0,2.76149 0,2.76149 3.22785,0 3.22786,0 z m 10.96298,-3.87968 c 0.247,-2.9374 0.46244,-5.49718 0.47874,-5.68839 0.0193,-0.2263 -0.31244,-0.54648 -0.95031,-0.91721 l -0.97995,-0.56954 -2.35187,4.32207 c -1.29354,2.37713 -2.40619,4.516 -2.47257,4.75303 -0.0664,0.23702 -0.18414,1.10815 -0.26171,1.93585 l -0.14102,1.5049 3.11478,0 3.11479,0 z m 16.6486,4.89268 c -0.28538,-0.23867 -1.3786,-1.1364 -2.42936,-1.99498 l -1.9105,-1.56105 -0.70645,0.79814 c -0.38856,0.43898 -1.13125,1.3399 -1.65042,2.00203 l -0.94395,1.20389 4.07978,-0.007 4.07979,-0.007 -0.51889,-0.43392 z m 21.18163,0.007 c -0.008,-0.25427 -2.18929,-3.38671 -5.15165,-7.3986 l -5.1375,-6.95763 -1.92935,-0.0563 c -1.60472,-0.0469 -1.99221,3.9e-4 -2.30287,0.28162 -0.20543,0.18591 -0.32934,0.45312 -0.27535,0.5938 0.054,0.14068 2.18762,3.34332 4.74141,7.11699 l 4.64327,6.8612 2.71309,0 c 2.68712,0 2.71297,-0.004 2.69895,-0.44099 z m 15.92451,-1.28354 c -0.50444,-0.94849 -2.28411,-4.29991 -3.95482,-7.4476 l -3.03768,-5.72309 -1.79986,0 c -1.5449,0 -1.81421,0.0486 -1.90117,0.34298 -0.0557,0.18864 -0.41694,1.96055 -0.80271,3.93757 l -0.7014,3.59459 2.01444,3.5065 2.01443,3.50651 4.54296,0.003 4.54297,0.003 -0.91716,-1.72452 z m 26.47934,0.89156 c -0.18309,-0.45812 -1.54293,-3.7875 -3.02186,-7.39861 l -2.689,-6.56565 -4.81614,-0.0524 c -2.64887,-0.0288 -4.81614,-0.009 -4.81614,0.0427 0,0.0523 -0.5323,2.3249 -1.1829,5.05017 l -1.18289,4.95504 0.9379,2.40037 0.93792,2.40037 8.08298,5.9e-4 8.08298,5.8e-4 -0.33285,-0.83296 z m 35.02618,-6.61465 c 0,-6.96254 -0.0224,-7.44757 -0.34299,-7.44699 -0.31491,5.9e-4 -1.77737,2.49754 -7.94423,13.5638 l -0.74161,1.3308 4.51442,0 4.51441,0 z m -87.73737,6.11689 c -0.52134,-0.6241 -2.53141,-3.04947 -4.4668,-5.38971 -1.93538,-2.34024 -3.567,-4.25347 -3.6258,-4.2516 -0.26833,0.008 -3.61227,3.36111 -3.43874,3.44763 0.1078,0.0537 2.88594,1.71653 6.17367,3.69507 3.28772,1.97854 6.05146,3.60545 6.14164,3.61534 0.0902,0.0104 -0.26261,-0.49263 -0.78397,-1.11673 z m -22.11478,-2.89558 c 1.40132,-1.28665 2.54787,-2.42264 2.54787,-2.52442 0,-0.17116 -3.96351,-2.65517 -4.23839,-2.65629 -0.13587,-5.5e-4 -2.13127,7.83039 -2.13127,8.36419 0,0.26486 0.13448,0.21118 0.63697,-0.25419 0.35032,-0.32447 1.7835,-1.64264 3.18482,-2.92929 z m 91.14378,-4.84017 1.96852,-5.73075 -3.61367,-0.0534 c -1.98753,-0.0294 -3.64686,-0.0203 -3.68739,0.0202 -0.1016,0.10161 3.13009,11.49902 3.25975,11.49659 0.0573,-10e-4 0.99009,-2.58078 2.07279,-5.7327 z m -100.81507,-2.65907 c 0.60947,-0.93475 1.07166,-1.75861 1.02709,-1.83082 -0.0445,-0.0722 -0.48132,-0.35499 -0.97056,-0.62842 -1.02292,-0.57173 -0.98655,-0.61705 -1.16078,1.44567 -0.0683,0.80845 -0.17554,1.82269 -0.23829,2.25387 -0.14199,0.97543 -0.0418,0.88288 1.34254,-1.2403 z m 17.78434,-1.16057 1.6077,-2.00889 -4.54282,0 -4.54281,0 2.72028,2.24409 c 2.06078,1.70005 2.77237,2.18708 2.93512,2.00889 0.11816,-0.12936 0.9383,-1.1392 1.82253,-2.24409 z m 25.37532,-0.58797 0.12657,-1.42092 -0.98131,0 c -0.53973,0 -0.98131,0.0364 -0.98131,0.0808 0,0.14472 1.61189,2.88073 1.66139,2.82004 0.0264,-0.0324 0.10505,-0.69839 0.17466,-1.4799 z M 52.953567,906.0483 c -0.06363,-0.20049 -0.227789,-0.75171 -0.364791,-1.22493 l -0.249095,-0.8604 -13.26969,-0.0503 -13.269688,-0.0503 0,1.27531 0,1.27531 13.634484,0 c 13.203058,0 13.630817,-0.0116 13.51878,-0.36454 z m 37.062093,-0.17444 c -0.05519,-0.29644 -0.154397,-0.8697 -0.220444,-1.27392 l -0.120084,-0.73497 -6.416708,0 -6.416709,0 -0.628204,1.27394 -0.628204,1.27392 7.265355,0 7.265356,0 z m 10.78798,-0.79045 0.68437,-1.21844 -0.89982,0 -0.899834,0 0,1.29027 c 0,0.85077 0.07343,1.2658 0.215458,1.21845 0.118496,-0.0396 0.523416,-0.62013 0.899826,-1.29028 z m 7.70425,0.96035 c 0,-0.42145 -2.31138,-1.90745 -2.56522,-1.64922 -0.0845,0.086 -0.33258,0.57532 -0.55119,1.08734 l -0.39747,0.93095 1.75694,0 c 1.58993,0 1.75694,-0.0351 1.75694,-0.36907 z m 27.41667,-0.52447 c 0.36525,-0.48478 0.62985,-0.91189 0.58797,-0.94914 -0.0418,-0.0372 -3.38345,0.18273 -7.42574,0.48883 -4.04229,0.3061 -7.4819,0.56151 -7.6436,0.56758 -0.19995,0.007 -0.13727,0.13361 0.19599,0.39429 0.46415,0.36306 0.83602,0.38318 7.05562,0.38157 l 6.56566,-0.002 0.6641,-0.88142 z m 21.80829,-0.29936 c 0.0366,-0.65609 0.0296,-1.22936 -0.0152,-1.27393 -0.13311,-0.13208 -4.72009,-0.0922 -4.72009,0.0411 0,0.0672 0.28495,0.64044 0.63321,1.27394 l 0.63321,1.1518 1.70125,0 1.70127,0 z m 5.80991,-0.0204 c -0.35628,-0.66732 -0.74523,-1.24367 -0.86433,-1.2808 -0.17656,-0.055 -0.6654,1.65729 -0.6654,2.33078 0,0.0898 0.48994,0.16331 1.08876,0.16331 l 1.08874,0 z m 28.11048,-0.0652 -0.50721,-1.27841 -3.33348,0.0535 -3.33347,0.0536 -0.25383,0.97995 c -0.1396,0.53897 -0.25554,1.09019 -0.25761,1.22493 -0.003,0.18829 0.94452,0.24499 4.09452,0.24499 l 4.0983,0 -0.50722,-1.27842 z m 26.43241,0.20047 c 0.20464,-0.53897 0.37211,-1.09019 0.37221,-1.22493 1.2e-4,-0.18958 -1.12996,-0.24498 -4.99758,-0.24498 -5.58393,0 -5.2601,-0.0942 -4.78447,1.39166 0.11728,0.36643 0.24745,0.77816 0.28928,0.91497 0.059,0.19332 1.04221,0.237 4.41227,0.19599 l 4.33627,-0.0528 0.37202,-0.97994 z m -41.91516,-1.32293 c -0.10552,-0.22368 -0.83018,-0.17542 -0.83018,0.0553 0,0.11127 0.14802,0.53019 0.32889,0.93095 l 0.3289,0.72868 0.12087,-0.78396 c 0.0665,-0.43118 0.0897,-0.85011 0.0516,-0.93096 z M 51.670924,901.91164 c 0,-0.32739 -10.605257,-36.15958 -10.744893,-36.30398 -0.126419,-0.13072 -11.85625,-7.13434 -14.071892,-8.40201 l -1.053836,-0.60294 0,22.74918 0,22.74917 12.93531,0 c 8.193573,0 12.935311,-0.0694 12.935311,-0.18942 z m 37.637139,-0.0556 c 0.0039,-0.13474 -0.277427,-2.06513 -0.62524,-4.28976 l -0.632388,-4.04478 -2.222627,-1.32258 c -1.222444,-0.72742 -2.250752,-1.28854 -2.285131,-1.24694 -0.147004,0.1779 -5.609155,10.91545 -5.609155,11.02652 0,0.0674 2.557664,0.12253 5.683696,0.12253 4.412486,0 5.685296,-0.0548 5.690845,-0.24499 z m 12.928157,0.1699 c 0,-0.0822 -2.328119,-1.49283 -2.46391,-1.49283 -0.04619,0 -0.084,0.35278 -0.084,0.78396 l 0,0.78396 1.27393,0 c 0.70067,0 1.27394,-0.0338 1.27394,-0.0751 z m 30.05512,-1.60108 c 4.75904,-0.92191 8.78931,-1.71595 8.95613,-1.76452 0.2663,-0.0776 8.61666,-10.23221 8.77263,-10.66819 0.0332,-0.0929 -0.45184,-0.0476 -1.07795,0.10046 -9.9179,2.34696 -37.29373,8.9572 -37.56718,9.07109 -0.30439,0.12676 0.12877,0.55871 2.54787,2.54073 l 2.9146,2.388 3.40053,0.004 3.40055,0.004 8.65282,-1.6762 z m 25.68807,1.23522 c 0.0493,-0.24253 0.18123,-1.70607 0.29319,-3.2523 0.17195,-2.37467 0.15883,-2.89785 -0.0845,-3.3684 -0.15844,-0.30638 -0.37001,-0.6077 -0.47015,-0.66959 -0.15189,-0.0938 -3.82229,3.11712 -6.25858,5.47519 l -0.65617,0.63511 0.51164,0.81048 0.51164,0.8105 3.03165,0 c 2.9867,0 3.03297,-0.006 3.12127,-0.44099 z m 18.53779,0.29399 c 5.9e-4,-0.0809 0.70729,-5.96287 1.57061,-13.07117 1.28332,-10.5663 1.53066,-13.04241 1.35579,-13.57228 -0.11764,-0.35645 -0.27319,-0.64795 -0.34568,-0.64777 -0.0995,2e-4 -9.62197,8.59673 -11.1819,10.0946 -0.22888,0.21978 0.25548,1.57892 3.13583,8.79922 l 3.40652,8.53929 1.02894,0.003 c 0.56592,10e-4 1.02937,-0.0636 1.02989,-0.14444 z m 13.71833,-0.0502 c 0,-0.43138 -3.21621,-8.03114 -3.33935,-7.89075 -0.0726,0.0828 -0.51177,1.78201 -0.97606,3.7762 -0.46428,1.99419 -0.88417,3.78015 -0.93309,3.96878 -0.0815,0.31421 0.13493,0.34299 2.57977,0.34299 1.65963,0 2.66873,-0.0746 2.66873,-0.19722 z m 29.25631,-0.63574 c 0.15768,-0.45812 3.42919,-9.92282 7.27004,-21.03266 l 6.98333,-20.19971 0,-7.28783 0,-7.28783 -11.43554,0 -11.43555,0 -7.52645,6.88307 c -4.13954,3.78569 -7.5575,6.9657 -7.59547,7.06668 -0.0379,0.10098 2.65201,9.74735 5.97769,21.43635 l 6.0467,21.25272 5.71427,10e-4 5.71427,6.6e-4 0.28671,-0.83296 z M 72.460825,892.18109 c 2.058208,-3.0845 3.668534,-5.67467 3.578503,-5.75591 -0.306909,-0.27696 -9.846125,-5.88297 -10.010489,-5.88297 -0.09006,0 0.457022,3.88059 1.215723,8.62354 0.7587,4.74294 1.400743,8.62354 1.426761,8.62354 0.02602,0 1.731292,-2.52369 3.789502,-5.6082 z m 61.896985,-9.74471 28.68594,-10.45316 8.60519,-10.6458 c 4.73285,-5.85519 8.65056,-10.71924 8.70602,-10.80897 0.0555,-0.0897 -0.27844,-0.003 -0.74199,0.19413 -0.46356,0.1965 -19.18746,8.10384 -41.60866,17.57184 -22.4212,9.46801 -40.836034,17.27411 -40.921853,17.34688 -0.110748,0.0939 8.341753,7.24826 8.563453,7.24826 0.0143,0 12.93463,-4.70393 28.7119,-10.45318 z m -20.31077,-19.95608 24.22052,-16.92222 -22.50772,-0.0498 c -12.37924,-0.0273 -32.721165,-0.0273 -45.204269,0 l -22.69655,0.0498 20.755743,17.00971 c 11.41566,9.35534 20.858347,16.97034 20.983754,16.92222 0.125405,-0.0482 11.127242,-7.7025 24.448522,-17.00971 z"
       style="fill:#000000" />
  </g>
</svg>
