<?xml version="1.0" encoding="UTF-8" standalone="no"?>
<svg
   xmlns:dc="http://purl.org/dc/elements/1.1/"
   xmlns:cc="http://creativecommons.org/ns#"
   xmlns:rdf="http://www.w3.org/1999/02/22-rdf-syntax-ns#"
   xmlns:svg="http://www.w3.org/2000/svg"
   xmlns="http://www.w3.org/2000/svg"
   version="1.1"
   id="svg2"
   viewBox="0 0 600.00001 280"
   height="280"
   width="600">
  <defs
     id="defs4" />
  <metadata
     id="metadata7">
    <rdf:RDF>
      <cc:Work
         rdf:about="">
        <dc:format>image/svg+xml</dc:format>
        <dc:type
           rdf:resource="http://purl.org/dc/dcmitype/StillImage" />
        <dc:title></dc:title>
      </cc:Work>
    </rdf:RDF>
  </metadata>
  <g
     transform="translate(0,-772.36216)"
     id="layer1">
    <path
       id="path4549"
       d="m 275.4036,1037.5017 c -41.12987,-2.465 -69.26116,-6.5734 -101.6361,-14.8434 -37.84393,-9.667 -70.78283,-24.12574 -92.95249,-40.80214 -17.907412,-13.47026 -29.931344,-29.90218 -33.097662,-45.23135 -1.108033,-5.3643 -1.106076,-15.00942 0.0036,-20.39731 9.603325,-46.60586 88.533652,-85.81236 194.972582,-96.84733 23.56014,-2.44258 53.46599,-3.49613 77.50795,-2.73055 16.25478,0.51762 31.70662,1.39006 34.14622,1.92796 l 1.22289,0.26963 0,8.21229 0,8.2123 -2.58167,-0.34079 c -1.41991,-0.18744 -7.84011,-0.82181 -14.2671,-1.40972 -66.35158,-6.06945 -132.24299,-1.28534 -183.10775,13.29476 -53.14969,15.23506 -85.905374,39.36722 -93.324302,68.75498 -1.492529,5.91221 -1.377831,17.65622 0.230937,23.64262 1.494376,5.56084 6.261798,15.22089 9.924557,20.10982 16.10492,21.49629 49.439808,39.42756 93.959378,50.54203 22.24988,5.5547 44.03765,8.9514 73.94215,11.5275 16.18366,1.3941 68.84469,1.3902 86.41785,-0.01 88.12643,-7.0038 150.52084,-29.37883 175.71964,-63.01426 l 3.15566,-4.21219 22.52512,0 c 12.38882,0 22.52511,0.13081 22.52511,0.29087 0,1.50508 -8.10081,11.47216 -13.93723,17.14809 -6.5142,6.33507 -11.97365,10.68835 -19.96004,15.91582 -42.38704,27.74437 -107.66164,45.48947 -183.15881,49.79227 -8.55504,0.4876 -50.97632,0.6293 -58.231,0.1945 z m 12.72176,-24.4802 -1.40946,-0.2182 -0.35694,-10.6579 c -0.19633,-5.8619 -0.35694,-12.45299 -0.35694,-14.64688 l 0,-3.98892 6.54908,0 c 7.50899,0 8.95454,0.48362 10.92659,3.65552 1.08254,1.74118 1.27536,2.76432 1.27536,6.76717 0,3.91531 -0.19023,4.97064 -1.12059,6.21671 -1.89241,2.5347 -3.60426,3.4498 -7.13621,3.8146 l -3.36525,0.3476 0.32078,4.5457 0.3208,4.5457 -2.11889,-0.081 c -1.16537,-0.045 -2.75314,-0.1797 -3.52833,-0.2997 z m 9.38341,-16.82369 c 1.1043,-0.99937 1.28994,-2.96694 0.43131,-4.5713 -0.41102,-0.76802 -1.14331,-1.0513 -2.71755,-1.0513 l -2.1549,0 0,3.26106 0,3.26105 1.72359,0 c 0.94799,0 2.17089,-0.40477 2.71755,-0.89951 z m 15.94041,15.95769 c -7.82038,-4.4216 -9.1506,-22.44747 -2.11252,-28.62698 3.57489,-3.1388 8.5268,-3.27066 12.03297,-0.32042 2.23802,1.88319 4.39171,6.68992 5.13255,11.45524 1.17552,7.56126 -1.02787,15.03056 -5.1933,17.60496 -2.55231,1.5774 -6.95946,1.527 -9.8597,-0.1127 z m 7.79484,-9.4104 c 0.87433,-2.5358 0.53704,-8.40788 -0.64547,-11.23804 -1.61234,-3.85884 -5.20491,-3.82806 -6.36816,0.0545 -0.80267,2.67906 -0.4488,9.64334 0.59807,11.77014 1.82248,3.7024 5.03811,3.4084 6.41556,-0.5867 z m -48.15033,9.716 -2.30991,-0.208 0,-10.5672 0,-10.56718 -3.06318,0 -3.06318,0 0.34564,-2.52164 c 0.19008,-1.38691 0.34563,-3.10488 0.34563,-3.81771 l 0,-1.29605 9.10377,0.1491 9.10377,0.14892 0,3.80456 0,3.80456 -2.85342,-0.17483 -2.85342,-0.17483 0,10.909 0,10.9091 -1.22289,-0.095 c -0.6726,-0.052 -2.26236,-0.1886 -3.53281,-0.303 z m -22.62633,-1.3594 c -5.17852,-1.3704 -8.35308,-7.4358 -7.78981,-14.88358 0.65725,-8.69034 5.38108,-14.32107 11.41499,-13.60643 4.69823,0.55643 7.8712,4.10092 8.71003,9.72993 l 0.30373,2.03815 -2.36716,0 c -2.9929,0 -4.08658,-0.41957 -4.08658,-1.56773 0,-2.88713 -3.7492,-4.40001 -5.66309,-2.28518 -1.20123,1.32734 -2.23616,7.3064 -1.73052,9.99774 0.81003,4.3114 4.68887,5.6371 6.30659,2.1554 l 0.81526,-1.7546 3.12518,-0.011 3.12517,-0.011 0,1.5238 c 0,0.8381 -0.62596,2.7799 -1.391,4.3152 -1.07129,2.1498 -1.92274,3.0488 -3.70441,3.9113 -2.51712,1.2185 -3.84351,1.3028 -7.06838,0.4495 z m 83.12862,-1.0239 c -0.47226,-2.791 -2.9495,-29.53218 -2.75443,-29.73339 0.25902,-0.26715 6.25026,-1.0308 6.25026,-0.79668 0,0.88127 1.73486,15.66104 1.85206,15.77824 0.13841,0.13841 1.01679,-2.70589 4.08892,-13.24021 l 1.12849,-3.86964 2.03623,-0.33658 c 3.76447,-0.62222 4.48201,-0.46955 4.48201,0.95372 0,0.71623 0.85981,7.84599 1.91071,15.84392 1.05087,7.99792 1.79316,14.65922 1.64951,14.80282 -0.14367,0.1437 -1.66783,0.2901 -3.38709,0.3255 l -3.12592,0.064 -0.69201,-5.1634 c -0.38059,-2.8398 -0.87974,-6.38617 -1.10921,-7.88082 l -0.41724,-2.71754 -2.40413,8.15266 c -1.32229,4.4839 -2.56969,8.3501 -2.77204,8.5915 -0.20235,0.2414 -1.73075,0.5796 -3.39646,0.7515 l -3.02858,0.3126 -0.31108,-1.8385 z m 30.50005,-2.0916 c -4.37789,-1.3938 -7.36215,-5.799 -8.82339,-13.02456 -2.199,-10.87363 1.32513,-19.964 8.13555,-20.98529 4.42794,-0.664 8.46164,2.26375 10.51353,7.63097 1.32136,3.45632 1.20918,3.68282 -2.1651,4.3713 l -3.10905,0.63436 -0.57402,-1.7393 c -1.11759,-3.38635 -4.72328,-3.85538 -5.99711,-0.78009 -1.53062,3.69526 0.35818,14.44961 2.76394,15.73712 2.42106,1.29569 4.86194,-0.45663 4.86194,-3.4905 0,-2.08035 0.33419,-2.29455 4.42712,-2.83748 l 2.80981,-0.37274 -0.32174,3.83768 c -0.37807,4.50953 -1.80813,7.64803 -4.37789,9.60813 -2.02078,1.5413 -5.72007,2.182 -8.14359,1.4104 z m -146.30434,-2.2315 c -7.05516,-0.4183 -17.63047,-1.8941 -26.36016,-3.6788 l -4.61983,-0.9445 -0.90162,-8.1315 c -0.4959,-4.47234 -1.4549,-13.67968 -2.13112,-20.46076 l -1.22951,-12.32924 -1.12993,-0.2623 c -0.62145,-0.14421 -5.22662,-0.82202 -10.23369,-1.50608 -5.00707,-0.68408 -9.09712,-1.37692 -9.089,-1.53967 0.0348,-0.69734 24.52484,-11.8916 37.18229,-16.99584 5.90649,-2.38183 21.16814,-8.00345 21.31443,-7.85113 0.0493,0.0513 1.10053,7.91969 2.33624,17.48544 2.63201,20.3745 6.93787,52.49248 7.37756,55.03028 l 0.30605,1.7664 -2.87806,-0.082 c -1.58293,-0.045 -6.05756,-0.2703 -9.94365,-0.5006 z M 379.02835,988.593 c -1.55387,-8.86238 -2.70323,-16.23543 -2.55409,-16.38455 0.1491,-0.14911 3.73814,-1.10583 7.97562,-2.12599 8.54718,-2.05774 8.2886,-2.11304 8.89057,1.90112 0.20003,1.33393 0.47626,2.71867 0.61382,3.07718 0.16469,0.42898 -1.23086,0.99008 -4.0818,1.6412 -5.63975,1.2881 -5.69057,1.32643 -5.24598,3.9579 l 0.36768,2.17634 4.1159,-1.05439 c 2.26373,-0.57993 4.29162,-0.85641 4.50641,-0.61444 0.40234,0.45327 1.74182,6.7604 1.48936,7.01286 -0.0777,0.0777 -1.97322,0.60829 -4.21217,1.17897 l -4.07083,1.03762 0.15853,2.37642 c 0.0871,1.30701 0.24177,2.45968 0.34357,2.5615 0.10181,0.10181 2.52416,-0.40888 5.38303,-1.13481 l 5.19796,-1.31991 0.82109,3.59973 c 0.45162,1.97985 0.6483,3.75575 0.43709,3.94645 -0.33087,0.2988 -16.14523,4.2806 -16.99988,4.2803 -0.17084,0 -1.58195,-7.2511 -3.13583,-16.1135 z m 22.84198,7.82493 c -0.32592,-1.56938 -1.83439,-8.69568 -3.35218,-15.83624 -1.51776,-7.14057 -2.66373,-13.07867 -2.54659,-13.19583 0.59025,-0.59025 10.16082,-2.88618 12.04812,-2.89027 4.29792,-0.009 7.06561,3.1594 8.45864,9.68425 1.2954,6.06755 -0.82102,10.50441 -5.9023,12.37361 -1.40599,0.5172 -2.72713,1.08339 -2.93586,1.25817 -0.20874,0.17483 0.0842,2.39673 0.65127,4.93763 0.56695,2.5409 0.86001,4.76202 0.65129,4.93584 -0.51302,0.42714 -4.65381,1.58626 -5.66677,1.58626 -0.54322,0 -1.00969,-0.94692 -1.40562,-2.85342 z m 7.56191,-17.65455 c 0.47836,-0.50023 0.6408,-1.53498 0.55412,-3.52976 -0.0875,-2.01363 -2.01922,-3.2514 -4.15789,-2.66423 l -1.61335,0.44292 0.16486,1.57997 c 0.0908,0.86898 0.40093,2.47878 0.68935,3.57732 l 0.52442,1.99735 1.71978,-0.49321 c 0.94587,-0.27129 1.89926,-0.68093 2.11864,-0.91036 z m -258.4921,12.73475 c -2.9893,-0.89348 -11.75644,-3.50005 -19.48252,-5.79244 l -14.04743,-4.16795 6.43831,-3.81806 c 11.49171,-6.81486 37.19077,-20.94389 37.5284,-20.63269 0.15798,0.14566 -4.63889,35.76036 -4.8368,35.91052 -0.0908,0.0688 -2.61067,-0.60593 -5.59996,-1.49938 z m 269.12349,-13.28774 c -1.94531,-7.99637 -3.61667,-15.01052 -3.71412,-15.58701 -0.14965,-0.88512 0.66817,-1.33027 5.25788,-2.86197 6.91224,-2.30677 9.60431,-2.20742 11.81104,0.43588 1.79767,2.15334 2.30466,4.46981 1.84125,8.41284 -0.27522,2.34156 -0.18826,2.94228 0.42587,2.94228 1.35886,0 3.48476,3.15761 4.16134,6.18086 1.48158,6.62042 -0.9067,9.77657 -9.82928,12.98958 -3.13097,1.12744 -5.85565,2.04461 -6.05485,2.03816 -0.19921,-0.007 -1.95381,-6.55425 -3.89913,-14.55062 z m 12.0063,3.67465 c 2.0532,-1.25187 2.27433,-2.75909 0.64399,-4.38943 -0.87521,-0.87521 -1.50369,-1.04071 -2.85342,-0.75135 -2.88161,0.61774 -2.93379,0.72829 -1.97417,4.18368 0.65399,2.35493 1.55347,2.56072 4.1836,0.9571 z m -2.73535,-11.51762 c 0.97442,-0.8087 0.86845,-2.30395 -0.25394,-3.58328 -0.80074,-0.91269 -1.24064,-1.00308 -2.78186,-0.57152 l -1.83072,0.51262 0.35594,2.22587 c 0.19576,1.22423 0.47793,2.42329 0.62705,2.66457 0.29456,0.47658 2.76012,-0.31591 3.88353,-1.24826 z m 16.1659,13.53014 c -0.26121,-0.70674 -8.40309,-28.79612 -8.40309,-28.99055 0,-0.45327 5.62171,-1.85568 5.95734,-1.48615 0.23355,0.25713 1.34015,3.52476 2.45912,7.26138 1.11898,3.73662 2.09456,6.86151 2.16795,6.94418 0.0734,0.0826 0.41622,-2.48541 0.76182,-5.70684 0.34558,-3.22145 0.77356,-7.13046 0.95105,-8.6867 l 0.3227,-2.82956 2.70671,-0.89902 c 1.4887,-0.49447 2.89429,-0.68864 3.12356,-0.43151 0.87842,0.98522 8.83192,26.93656 8.38255,27.35122 -0.25996,0.23985 -1.59482,0.92266 -2.96636,1.51735 l -2.49375,1.08127 -2.09955,-6.58854 c -1.15474,-3.62368 -2.24792,-6.77385 -2.42925,-7.00039 -0.18133,-0.22651 -0.75678,3.31988 -1.27879,7.88088 -0.522,4.56101 -1.1193,8.44752 -1.32735,8.63668 -0.20806,0.18915 -1.5511,0.85289 -2.98455,1.47497 -1.90293,0.82581 -2.67207,0.95301 -2.85011,0.47133 z m -108.24316,-8.26843 c -1.25681,-0.88031 -3.42656,-4.09808 -3.42656,-5.08164 0,-0.33269 0.61836,-0.76008 1.37415,-0.94979 1.05216,-0.26407 1.68169,-0.0127 2.68672,1.07144 1.55292,1.67562 2.55218,1.4509 3.38737,-0.76178 0.45999,-1.21866 0.95567,-1.616 2.01596,-1.616 1.75053,0 1.84927,1.41657 0.3318,4.75974 -1.42499,3.13938 -4.0507,4.20214 -6.36944,2.57803 z m 133.34045,-3.78672 c -2.90333,-1.03379 -5.04102,-3.2473 -6.84123,-7.08385 -2.08744,-4.44871 -2.93951,-8.48511 -2.5945,-12.29025 0.48193,-5.31467 3.32276,-8.65949 8.03022,-9.45481 1.70334,-0.28777 2.73366,-0.0909 4.73903,0.90551 2.49556,1.23999 6.10328,5.20451 6.10328,6.70689 0,0.40113 -1.2223,1.13532 -2.71624,1.63152 l -2.71624,0.90219 -1.4084,-1.67377 c -2.90262,-3.44957 -6.08399,-1.25936 -5.48742,3.77784 0.34458,2.90947 2.04553,7.22669 3.46541,8.79564 1.13677,1.25612 3.55547,1.24432 4.70233,-0.023 0.49473,-0.54666 0.89996,-1.8307 0.90054,-2.85342 l 0.001,-1.85949 2.9953,-0.88188 2.99531,-0.8819 0.3286,1.30933 c 0.64863,2.5843 -0.0739,7.51843 -1.36699,9.33431 -2.32415,3.26397 -7.4639,4.94446 -11.13001,3.63908 z m -354.44392,-3.38589 c 0.40194,-1.73495 2.97938,-12.81532 5.72767,-24.62304 2.74829,-11.80773 6.28059,-27.41507 7.84957,-34.68297 1.56898,-7.26792 3.06961,-13.41294 3.33473,-13.6556 1.55906,-1.42702 36.90195,-14.0695 37.54224,-13.42919 0.18686,0.18684 0.042,2.84925 -0.32174,5.91647 -0.7619,6.42331 -6.39816,49.13232 -6.8865,52.1826 l -0.32629,2.03816 2.40298,0 c 1.32163,0 2.56027,0.15726 2.75249,0.34953 0.19224,0.19222 -2.51851,1.74149 -6.02389,3.44277 -10.72413,5.20483 -32.0307,16.82541 -44.78527,24.42583 l -1.99678,1.18989 0.73079,-3.15445 z m 115.61784,-32.24133 0.15128,-7.7531 2.44579,-0.7367 c 2.06962,-0.62337 15.94283,-4.16111 20.7892,-5.30131 l 1.49465,-0.35165 0,6.72503 0,6.72503 -4.21219,1.24384 c -2.31671,0.68409 -7.51401,2.45356 -11.54956,3.9321 -4.03555,1.47858 -7.77228,2.81914 -8.30385,2.97908 l -0.96647,0.29077 0.15128,-7.75309 z m 199.3471,3.41322 c -5.5302,-0.75824 -10.20772,-1.61578 -10.39451,-1.90569 -0.41944,-0.65102 -1.1297,-6.46058 -0.82687,-6.76339 0.44156,-0.44158 23.98012,4.80256 24.38005,5.43161 0.22683,0.35678 0.4195,1.01555 0.42814,1.46394 0.009,0.4484 0.16324,1.36557 0.34348,2.03816 l 0.32772,1.22289 -2.10155,-0.0545 c -1.15584,-0.0299 -6.62626,-0.67484 -12.15646,-1.43307 z m -250.7848,-4.58405 c -0.39888,-3.05863 -4.1492,-48.82075 -4.28696,-52.31047 l -0.10544,-2.67241 3.26105,-0.99031 c 8.20924,-2.49299 33.29292,-8.44872 33.6401,-7.98733 0.21967,0.2919 6.33727,48.94121 6.32155,50.27099 -0.009,0.81117 -0.4668,1.27743 -1.50842,1.53829 -3.9171,0.98102 -24.72142,9.11606 -36.37535,14.22371 -0.41308,0.18099 -0.74833,-0.55305 -0.94648,-2.07247 z m 209.47815,-1.75127 c -5.82913,-0.93734 -10.59842,-1.94529 -10.59842,-2.23991 0,-0.94342 1.45077,-8.41654 1.63392,-8.41654 0.42482,0 21.8367,4.41766 22.73213,4.69005 l 0.99519,0.30273 -0.35511,2.80282 c -0.55279,4.36309 -0.73026,4.71293 -2.35126,4.6351 -0.80191,-0.0384 -6.22732,-0.83692 -12.05645,-1.77425 z m -122.34967,-6.2483 c -0.95145,-2.87288 -1.83327,-5.50522 -1.9596,-5.84966 -0.1386,-0.37767 0.84113,-0.8559 2.46805,-1.20481 3.83031,-0.82146 20.1106,-2.88667 21.16109,-2.68437 0.54646,0.10526 1.63567,2.11669 2.88705,5.33151 1.10522,2.83938 1.92567,5.25435 1.82318,5.36658 -0.10254,0.11215 -3.19248,0.65502 -6.86669,1.20618 -3.67421,0.55115 -9.1785,1.46468 -12.23177,2.03004 l -5.55139,1.02793 -1.72992,-5.2234 z m 73.70565,0.48209 c -3.88608,-0.23003 -13.11894,-0.44613 -20.51745,-0.48021 l -13.45183,-0.062 0,-5.43509 0,-5.43508 11.64099,0 c 6.40253,0 12.02784,0.14838 12.5007,0.32991 0.47283,0.18144 0.8597,0.76636 0.8597,1.29984 0,1.84249 4.69722,1.91728 7.47884,0.11902 1.33102,-0.86042 5.17899,-0.60152 19.56071,1.31622 l 6.65798,0.88782 0,1.06722 c 0,1.72625 -3.31127,4.57447 -6.37642,5.48472 -3.74309,1.11159 -9.82519,1.41233 -18.35322,0.90753 z m 88.32015,-4.53069 c -5.82913,-1.244 -10.90371,-2.45943 -11.27685,-2.70095 -0.37313,-0.24151 -3.55266,-0.92431 -7.06561,-1.51733 -7.58645,-1.28067 -28.01078,-5.35475 -28.30136,-5.64533 -0.27876,-0.27877 4.31211,-22.73596 4.74929,-23.23218 0.19262,-0.21862 3.97667,0.0871 8.40902,0.67938 4.43235,0.59228 9.11839,1.07687 10.41342,1.07687 1.29504,0 2.45929,0.18344 2.58721,0.40763 0.12791,0.2242 -0.32904,4.43411 -1.01551,9.35536 -0.68645,4.92124 -1.15446,9.09922 -1.04002,9.2844 0.23645,0.38259 9.4595,1.83274 9.73583,1.53079 0.0989,-0.10816 -0.40007,-4.58219 -1.10897,-9.94235 -0.70892,-5.36015 -1.23134,-9.79332 -1.16094,-9.85145 0.31799,-0.26265 21.59659,-0.58995 21.59659,-0.33221 0,0.15961 1.34518,7.31526 2.9893,15.90141 1.64411,8.58613 2.98929,16.00104 2.98929,16.47757 0,1.15278 -0.24887,1.12308 -12.50069,-1.49161 z m -197.7067,-29.80398 0.14131,-25.17818 6.79386,-0.60672 c 3.73662,-0.33368 9.30079,-0.72448 12.36482,-0.86844 l 5.57096,-0.26171 0,8.97577 c 0,4.93667 0.13769,8.83814 0.30585,8.6699 0.16813,-0.16812 1.23342,-4.12758 2.36709,-8.7986 1.13368,-4.67101 2.19798,-8.62949 2.36511,-8.79662 0.3066,-0.30661 22.77676,0.78586 23.1147,1.12382 0.1,0.1 -1.17949,4.40377 -2.84348,9.56381 -1.66398,5.16003 -3.02542,9.71844 -3.02542,10.12978 0,0.41137 1.58976,5.03737 3.53281,10.28 1.94304,5.24265 3.5328,9.70683 3.5328,9.92037 0,0.21358 -2.75151,0.70971 -6.11447,1.10254 -3.36296,0.39283 -8.68255,1.15355 -11.82131,1.69048 -3.13876,0.53693 -5.73996,0.93945 -5.78043,0.89452 -0.0406,-0.0449 -1.26339,-3.75041 -2.71754,-8.23435 l -2.64396,-8.15263 -0.14892,8.7525 -0.14892,8.75248 -11.80821,2.92712 c -6.49453,1.60991 -12.11642,3.00928 -12.49309,3.10972 -0.54503,0.1453 -0.65598,-4.95727 -0.54351,-24.99556 z m 129.22462,16.56987 c -2.54091,-0.36748 -7.06562,-0.92951 -10.05491,-1.24894 -2.9893,-0.31944 -6.47455,-0.72421 -7.745,-0.89949 l -2.30991,-0.31868 0,-5.57183 c 0,-4.72445 -0.16324,-5.77927 -1.07291,-6.93582 -0.97688,-1.2419 -4.50072,-2.58716 -6.77688,-2.58716 l -0.84635,0 0,7.41125 0,7.41123 -2.52164,-0.34562 c -1.38691,-0.1901 -7.01222,-0.34564 -12.5007,-0.34564 l -9.97905,0 0,-17.87886 0,-17.87887 7.20148,1.5303 c 3.96082,0.84166 9.52499,2.11434 12.36482,2.82816 l 5.16334,1.29785 0.27175,4.58817 0.27175,4.58817 3.09886,0.16215 c 4.00237,0.20951 5.32553,-0.9111 5.32553,-4.51029 0,-1.34518 0.15218,-2.44579 0.33839,-2.44579 0.18609,0 4.64966,1.11778 9.91903,2.48395 5.26935,1.36618 10.49781,2.72078 11.6188,3.01026 2.16595,0.55928 2.60281,1.67484 1.47854,3.77555 -1.1387,2.12767 -3.72108,2.89476 -10.85406,3.22417 -5.38491,0.24869 -6.34299,0.40261 -4.61983,0.74223 7.30972,1.4407 13.99939,4.52317 16.14697,7.44023 0.84992,1.15442 0.99138,2.18487 0.85956,6.2616 l -0.1578,4.87979 -4.61982,-0.66814 z m 143.12903,-11.99096 c -3.96605,-5.93951 -12.32255,-14.39415 -19.62397,-19.85449 -21.79702,-16.30077 -54.71815,-29.11829 -95.922,-37.34629 l -3.12518,-0.62407 0,-8.95398 0,-8.954 1.7664,0.29276 c 0.97153,0.16106 3.96762,0.68503 6.65798,1.16448 2.69037,0.47945 6.35906,1.09379 8.15263,1.36522 7.66918,1.16057 17.46243,3.3728 18.32318,4.13906 0.51199,0.45578 1.32348,0.67804 1.80333,0.49392 1.17218,-0.44981 6.95276,0.78776 18.87697,4.04138 33.85514,9.23769 64.04425,22.78202 83.94532,37.66201 6.90832,5.16535 16.97323,14.79768 21.08368,20.17754 2.96668,3.88286 6.79116,9.9157 6.79116,10.71256 0,0.24179 -10.24963,0.4396 -22.77696,0.4396 l -22.77694,0 -3.1756,-4.7557 z M 135.11664,883.09639 c 0.15581,-0.52312 1.14681,-5.45981 2.20221,-10.97041 1.0554,-5.5106 2.10617,-10.20202 2.33502,-10.42538 1.45722,-1.42229 28.44748,-8.46924 39.27696,-10.25492 8.89191,-1.46619 30.3418,-2.67178 30.91902,-1.7378 0.39303,0.63592 1.84377,11.58913 1.56,11.77807 -0.0772,0.0515 -3.56437,0.78039 -7.74938,1.62005 -4.18502,0.83965 -12.13383,2.74434 -17.66403,4.23263 -5.5302,1.48827 -10.65174,2.78296 -11.3812,2.87706 -0.72946,0.0942 -1.83006,0.41975 -2.44579,0.72368 -0.61572,0.3039 -5.59741,2.04046 -11.07041,3.85902 -5.47301,1.81855 -13.47909,4.64356 -17.79129,6.2778 -4.31219,1.63424 -7.983,2.97134 -8.15735,2.97134 -0.17429,0 -0.18954,-0.42801 -0.0337,-0.95114 z m 281.05567,-0.65779 -3.26105,-0.29335 -0.27176,-1.85907 c -0.32312,-2.21048 -1.63052,-2.9708 -1.63052,-0.94822 0,2.9456 -0.35024,3.16037 -4.55214,2.79149 -5.3526,-0.46988 -16.32249,-1.93217 -16.60709,-2.21371 -0.12881,-0.12736 0.34687,-3.29998 1.057,-7.05017 l 1.29114,-6.81853 1.23382,0.30967 c 2.34321,0.58811 27.64609,5.11394 32.252,5.7688 6.96548,0.99033 6.78552,0.85691 7.60332,5.63772 0.3889,2.27352 0.61043,4.21747 0.49231,4.3199 -0.41792,0.36243 -14.39319,0.64456 -17.60703,0.35547 z m -63.72638,-10.76382 -11.54956,-3.01749 0,-1.51422 c 0,-2.2598 -2.06825,-4.29397 -5.18192,-5.09651 -1.48443,-0.38261 -2.88239,-0.58835 -3.10659,-0.4572 -0.2242,0.13117 -0.40763,1.20235 -0.40763,2.38044 0,1.17807 -0.20184,2.14195 -0.44856,2.14195 -0.2467,0 -4.09881,-0.82378 -8.56026,-1.83059 -4.46142,-1.00683 -9.8849,-2.14661 -12.05214,-2.53284 l -3.94043,-0.70223 0,-5.80904 0,-5.80904 2.85342,0.45053 c 31.48519,4.97124 41.21469,6.96021 46.18736,9.44194 3.44662,1.72013 6.79202,4.7927 7.81913,7.18144 0.78337,1.82189 1.05589,8.34907 0.34436,8.24816 -0.22419,-0.0319 -5.60493,-1.41568 -11.95718,-3.0753 z m -120.79477,-18.23225 0,-5.10938 3.66868,-0.35181 c 2.01778,-0.19349 6.9705,-0.48525 11.00605,-0.64832 4.03555,-0.16305 8.00996,-0.40089 8.83202,-0.52845 l 1.49465,-0.23195 0,5.14974 0,5.14974 -4.2122,0.005 c -4.29072,0.005 -15.82238,0.84097 -19.0228,1.37785 l -1.7664,0.29632 0,-5.10936 z m 48.37226,3.96844 c -2.24197,-0.21823 -6.80215,-0.42875 -10.13371,-0.46783 l -6.05742,-0.071 1.25608,-4.93654 c 0.69084,-2.71508 1.36194,-5.04238 1.49132,-5.17178 0.25197,-0.25197 24.45533,0.89842 24.77815,1.17771 0.10581,0.0917 -0.52459,2.32189 -1.40102,4.9562 l -1.59351,4.78967 -2.13179,0.0602 c -1.17249,0.0332 -3.96612,-0.1183 -6.2081,-0.33659 z m 76.75061,-30.83947 0.1558,-25.95254 1.58796,-2.70176 c 4.80296,-8.17189 15.18999,-13.29386 25.58747,-12.61751 2.39144,0.15562 5.32639,0.63717 6.52211,1.07026 l 2.17403,0.78739 -2.06968,0.87353 c -1.13832,0.48044 -2.72809,1.33493 -3.53281,1.89888 -0.96653,0.67733 -2.9284,1.15437 -5.78048,1.40553 -7.58767,0.66817 -13.67926,3.73006 -16.79858,8.44369 l -1.43967,2.17547 0,25.2848 0,25.28479 -3.28101,0 -3.28106,0 0.15581,-25.95253 z m 21.44071,1.36547 -0.36095,-24.58704 1.4263,-2.91527 c 1.74689,-3.57051 6.09448,-7.99943 9.83437,-10.01837 3.65045,-1.97063 10.35023,-3.65679 14.5299,-3.65679 9.34242,0 17.93361,4.85472 21.46328,12.12848 l 1.6312,3.36151 0.37002,12.90833 0.37004,12.90833 -2.99187,0 -2.99189,0 -0.35151,-4.15831 c -0.19332,-2.28709 -0.3515,-7.86452 -0.3515,-12.3943 l 0,-8.23597 -1.55395,-2.41633 c -2.11352,-3.28643 -3.5907,-4.54045 -7.40617,-6.28723 -2.64723,-1.21194 -4.05834,-1.49411 -7.60751,-1.52123 -2.3966,-0.0183 -5.6412,0.2946 -7.21024,0.69535 -3.74865,0.95741 -8.91702,4.34417 -10.98412,7.1977 l -1.65309,2.28201 0,24.6481 0,24.64809 -2.90068,0 -2.90069,0 -0.36094,-24.58706 z m -8.24066,9.41481 -5.43509,-0.90125 -0.14983,-8.58653 -0.14982,-8.58653 1.50867,0.28416 c 0.82979,0.15635 2.97616,0.43155 4.76974,0.6117 1.79358,0.18009 3.93364,0.4594 4.7557,0.62056 l 1.49465,0.29301 0,8.65296 c 0,6.59729 -0.16142,8.63636 -0.67939,8.58306 -0.37366,-0.0384 -3.12517,-0.47547 -6.11447,-0.97114 z m 29.62121,-24.79728 0,-10.62006 -1.04728,-2.05287 c -0.57601,-1.12909 -1.43204,-2.37218 -1.90228,-2.76244 -0.47025,-0.39027 -0.855,-0.89981 -0.855,-1.13233 0,-0.58905 5.27322,-1.7966 6.23457,-1.42768 0.43278,0.16613 1.42365,1.55858 2.20196,3.09448 l 1.41508,2.79253 0.22327,11.36422 0.22327,11.36422 -3.24679,0 -3.2468,0 0,-10.62007 z"
       style="fill:#000000" />
  </g>
</svg>
